<svg width="150" height="54" viewBox="0 0 150 54" fill="none" xmlns="http://www.w3.org/2000/svg">
<g clip-path="url(#clip0_229_5202)">
<path fill-rule="evenodd" clip-rule="evenodd" d="M-0.0634766 6.82031H16.3762L-0.0634766 46.1362V6.82031ZM44.3613 6.82031H27.9431L44.3613 46.1362V6.82031ZM22.1597 21.3108L32.6233 46.1362H25.7583L22.631 38.2324H14.9734L22.1597 21.3108ZM73.1194 37.3811L71.1809 31.8227H63.2235L61.3921 37.3169C61.3171 37.5204 61.2207 37.5846 61.0173 37.5846H57.6865C57.4937 37.5846 57.4187 37.4882 57.4509 37.2526L64.3159 17.7285C64.4551 17.3965 64.5515 17.0538 64.6158 15.9293C64.6158 15.7901 64.6907 15.6937 64.8192 15.6937H69.4459C69.6173 15.6937 69.6494 15.7258 69.6815 15.8972L77.3819 37.2848C77.414 37.4882 77.3819 37.5846 77.1784 37.5846H73.4514C73.28 37.5846 73.1837 37.5204 73.1194 37.3811ZM64.7 26.9386C64.5573 27.3676 64.4177 27.7874 64.2838 28.1921H70.1206C69.9119 27.5407 69.6285 26.6783 69.3157 25.7261L69.3152 25.7249C68.5685 23.4525 67.654 20.6695 67.1861 19.0244H67.154C66.6898 20.9557 65.6299 24.1426 64.7001 26.9383L64.7 26.9386ZM87.2815 37.9166C89.2842 37.9166 91.4155 37.5525 93.5789 36.6207C93.7502 36.5564 93.7823 36.4815 93.7823 36.3208C93.7181 35.7211 93.6431 34.8536 93.6431 34.1896V14.055C93.6431 13.9265 93.6431 13.8623 93.4825 13.8623H89.8518C89.7126 13.8623 89.6484 13.9265 89.6484 14.0979V20.9201C89.0807 20.8558 88.6845 20.8237 88.2132 20.8237C82.3549 20.8237 78.7564 24.6899 78.7564 29.5201C78.7564 35.1213 82.4513 37.9166 87.2815 37.9166ZM89.6483 34.1896C89.0486 34.3823 88.3846 34.4573 87.7099 34.4573C85.0538 34.4573 82.8797 32.9579 82.8797 29.3166C82.8797 26.0929 85.1181 24.1866 88.0847 24.1866C88.6845 24.1866 89.2092 24.2508 89.6483 24.4222V34.1896ZM97.268 29.3916C97.268 24.6578 100.363 20.8237 105.365 20.8237C110.495 20.8237 113.29 24.7221 113.29 29.2845C113.29 34.4574 109.991 37.9167 105.29 37.9167C99.7313 37.9167 97.268 33.622 97.268 29.3916ZM109.188 29.3916C109.188 26.6177 107.989 24.1866 105.161 24.1866C102.923 24.1866 101.327 26.1572 101.327 29.3166C101.327 32.3904 102.826 34.5216 105.365 34.5216C107.421 34.5216 109.188 32.8188 109.188 29.3916ZM117.044 13.8623C116.904 13.8623 116.808 13.9265 116.808 14.0979V36.8884C116.808 36.9848 116.904 37.1562 117.044 37.1883C118.639 37.681 120.31 37.9166 122.034 37.9166C126.972 37.9166 131.77 34.8536 131.77 28.6847C131.77 24.2187 128.707 20.8237 123.909 20.8237C122.806 20.8237 121.777 20.995 120.878 21.2949L120.835 14.13C120.835 13.8944 120.771 13.8623 120.535 13.8623H117.044ZM127.668 29.0917C127.668 32.7866 125.14 34.5216 122.409 34.5216C121.842 34.5216 121.338 34.4894 120.878 34.3502V24.6257C121.403 24.4222 122.034 24.2508 123.202 24.2508C125.836 24.2508 127.668 25.9216 127.668 29.0917ZM148.746 30.152C148.286 30.2591 146.947 30.2912 145.319 30.2912H138.55C138.647 32.6153 140.189 34.4895 143.584 34.4895C145.083 34.4895 146.454 34.2217 147.718 33.6863C147.814 33.622 147.911 33.6541 147.911 33.8148V36.5886C147.911 36.7814 147.847 36.8885 147.718 36.9528C146.454 37.5525 144.987 37.9167 142.717 37.9167C136.655 37.9167 134.491 33.6541 134.491 29.5522C134.491 24.9256 137.287 20.8237 142.32 20.8237C147.247 20.8237 149.153 24.69 149.153 27.8601C149.153 28.7919 149.11 29.5522 149.014 29.9164C148.982 30.0556 148.918 30.1199 148.746 30.152ZM142.149 24.026C139.846 24.026 138.818 25.7931 138.55 27.421H143.52H143.52C144.784 27.421 145.212 27.421 145.351 27.3889V27.1211C145.351 26.1572 144.687 24.026 142.149 24.026Z" fill="white"/>
</g>
<defs>
<clipPath id="clip0_229_5202">
<rect width="150" height="54" fill="white"/>
</clipPath>
</defs>
</svg>
