<svg width="150" height="46" viewBox="0 0 150 46" fill="none" xmlns="http://www.w3.org/2000/svg">
<path fill-rule="evenodd" clip-rule="evenodd" d="M17.5698 8.00124L3.03801 13.8392C2.2299 14.1639 2.23827 15.2786 3.05144 15.5915L17.6438 21.2098C18.9259 21.7035 20.3537 21.7035 21.6358 21.2098L36.2284 15.5913C37.0414 15.2786 37.0502 14.1641 36.2416 13.8394L21.7103 8.00103C20.3846 7.46841 18.8953 7.46841 17.5695 8.00103L17.5698 8.00124ZM60.2773 25.8258L57.6694 19.0007C57.563 18.7215 57.1563 18.7215 57.0497 19.0007L54.4423 25.8262C54.4238 25.8748 54.4177 25.9269 54.4244 25.9782C54.4311 26.0296 54.4506 26.0785 54.481 26.121C54.5115 26.1635 54.552 26.1981 54.5993 26.2221C54.6465 26.246 54.699 26.2585 54.7523 26.2585H59.9673C60.0206 26.2585 60.0731 26.246 60.1203 26.222C60.1676 26.198 60.2081 26.1633 60.2386 26.1209C60.269 26.0784 60.2884 26.0294 60.2951 25.978C60.3018 25.9267 60.2956 25.8745 60.2771 25.826L60.2773 25.8258ZM61.4815 29.6621H53.2379C53.1704 29.6621 53.1046 29.6822 53.0492 29.7196C52.9939 29.757 52.9516 29.8099 52.9281 29.8713L51.3051 34.1181C51.2816 34.1795 51.2394 34.2324 51.184 34.2698C51.1286 34.3072 51.0628 34.3273 50.9953 34.3273H47.4221C47.3681 34.3273 47.3149 34.3144 47.2672 34.2898C47.2195 34.2652 47.1787 34.2296 47.1484 34.1862C47.1182 34.1427 47.0993 34.0928 47.0936 34.0406C47.0878 33.9885 47.0953 33.9358 47.1154 33.8871L55.3421 13.9896C55.3667 13.9302 55.4091 13.8793 55.4638 13.8435C55.5185 13.8076 55.583 13.7885 55.649 13.7886H59.0704C59.2052 13.7886 59.3266 13.8681 59.3771 13.9896L67.6035 33.8869C67.6237 33.9356 67.6313 33.9883 67.6256 34.0405C67.6199 34.0927 67.601 34.1428 67.5708 34.1863C67.5405 34.2298 67.4997 34.2654 67.4519 34.29C67.4042 34.3146 67.3509 34.3275 67.2968 34.3275H63.7243C63.6568 34.3275 63.5909 34.3074 63.5356 34.27C63.4802 34.2325 63.438 34.1795 63.4145 34.1181L61.7913 29.8713C61.7678 29.8099 61.7255 29.757 61.6702 29.7196C61.6148 29.6822 61.549 29.6621 61.4815 29.6621ZM69.2777 20.7716H72.3338C72.4215 20.7716 72.5055 20.8054 72.5675 20.8655C72.6295 20.9257 72.6643 21.0073 72.6643 21.0924V34.0064C72.6643 34.0915 72.6295 34.1731 72.5675 34.2333C72.5055 34.2935 72.4215 34.3273 72.3338 34.3273H69.2777C69.19 34.3273 69.106 34.2935 69.044 34.2333C68.982 34.1731 68.9472 34.0915 68.9472 34.0064V21.0922C68.9472 21.0071 68.982 20.9255 69.044 20.8653C69.106 20.8051 69.19 20.7713 69.2777 20.7713V20.7716ZM83.8103 23.9129C83.8103 23.998 83.7755 24.0796 83.7135 24.1398C83.6515 24.1999 83.5675 24.2337 83.4798 24.2337H83.3873C81.8762 24.2337 80.7678 24.5858 80.0628 25.29C79.3574 25.9941 79.0053 27.1582 79.0053 28.7817V34.0064C79.0053 34.0915 78.9705 34.1731 78.9085 34.2333C78.8465 34.2935 78.7625 34.3273 78.6748 34.3273H75.6486C75.561 34.3273 75.4769 34.2935 75.415 34.2333C75.353 34.1731 75.3182 34.0915 75.3182 34.0064V21.0922C75.3182 21.0071 75.353 20.9255 75.415 20.8653C75.4769 20.8051 75.561 20.7713 75.6486 20.7713H78.6444C78.7321 20.7713 78.8161 20.8051 78.8781 20.8653C78.9401 20.9255 78.9749 21.0071 78.9749 21.0922V23.6466H79.0355C79.3981 22.5904 79.9723 21.779 80.7583 21.2113C81.5437 20.6443 82.5109 20.3604 83.6592 20.3604H83.8103V23.9127V23.9129ZM92.1667 23.7935C92.0791 23.7935 91.995 23.8273 91.933 23.8875C91.8711 23.9477 91.8362 24.0293 91.8362 24.1144V29.4859C91.8362 30.0337 91.9464 30.4249 92.1685 30.6595C92.3899 30.8942 92.7728 31.0116 93.3167 31.0116H93.621C93.7086 31.0116 93.7927 31.0454 93.8547 31.1056C93.9166 31.1658 93.9515 31.2474 93.9515 31.3325V34.0355C93.9515 34.1206 93.9166 34.2022 93.8547 34.2624C93.7927 34.3226 93.7086 34.3564 93.621 34.3564H92.3194C90.9695 34.3564 89.9321 34.0191 89.2068 33.3442C88.4813 32.6693 88.1187 31.6672 88.1187 30.3368V24.1144C88.1187 24.0293 88.0839 23.9477 88.0219 23.8875C87.9599 23.8273 87.8759 23.7935 87.7882 23.7935H85.8806C85.7929 23.7935 85.7089 23.7597 85.6469 23.6996C85.5849 23.6394 85.5501 23.5578 85.5501 23.4727V21.0922C85.5501 21.0071 85.5849 20.9255 85.6469 20.8653C85.7089 20.8051 85.7929 20.7713 85.8806 20.7713H87.7885C87.8761 20.7713 87.9602 20.7375 88.0221 20.6774C88.0841 20.6172 88.1189 20.5356 88.1189 20.4505V15.664C88.1189 15.5789 88.1537 15.4973 88.2157 15.4372C88.2777 15.377 88.3618 15.3432 88.4494 15.3432H91.5056C91.5932 15.3432 91.6773 15.377 91.7392 15.4372C91.8012 15.4973 91.836 15.5789 91.836 15.664V20.4505C91.836 20.5356 91.8708 20.6172 91.9328 20.6774C91.9948 20.7375 92.0788 20.7713 92.1665 20.7713H94.3764C94.4641 20.7713 94.5481 20.8051 94.6101 20.8653C94.6721 20.9255 94.7069 21.0071 94.7069 21.0922V23.4729C94.7069 23.558 94.6721 23.6396 94.6101 23.6998C94.5481 23.76 94.4641 23.7938 94.3764 23.7938H92.1667V23.7935ZM106.161 30.3075C106.856 29.6033 107.204 28.6839 107.204 27.5492C107.204 26.4151 106.856 25.4953 106.161 24.7912C105.466 24.087 104.554 23.7349 103.426 23.7349C102.298 23.7349 101.386 24.087 100.691 24.7912C99.9962 25.4953 99.6485 26.4151 99.6485 27.5492C99.6485 28.6839 99.9962 29.6033 100.691 30.3075C101.386 31.0116 102.298 31.3637 103.426 31.3637C104.554 31.3637 105.466 31.0116 106.161 30.3075ZM99.1046 33.9164C98.077 33.3493 97.2658 32.5226 96.6719 31.4371C96.0772 30.3515 95.7803 29.0557 95.7803 27.5492C95.7803 26.0433 96.0772 24.7471 96.6719 23.6616C97.2658 22.576 98.077 21.7499 99.1046 21.1822C100.132 20.615 101.26 20.3313 102.489 20.3313C103.577 20.3313 104.509 20.5367 105.285 20.9474C106.06 21.3581 106.68 21.9354 107.143 22.6787H107.204V21.0922C107.204 21.0071 107.238 20.9255 107.3 20.8653C107.362 20.8051 107.446 20.7713 107.534 20.7713H110.56C110.648 20.7713 110.732 20.8051 110.794 20.8653C110.856 20.9255 110.891 21.0071 110.891 21.0922V34.0062C110.891 34.0913 110.856 34.1729 110.794 34.2331C110.732 34.2933 110.648 34.3271 110.56 34.3271H107.534C107.446 34.3271 107.362 34.2933 107.3 34.2331C107.238 34.1729 107.204 34.0913 107.204 34.0062V32.4199H107.143C106.68 33.1637 106.06 33.7403 105.285 34.151C104.509 34.5617 103.577 34.7671 102.489 34.7671C101.26 34.7671 100.132 34.4834 99.1046 33.9164ZM123.475 30.3075C124.17 29.6033 124.518 28.6839 124.518 27.5492C124.518 26.4151 124.17 25.4953 123.475 24.7912C122.781 24.087 121.869 23.7349 120.74 23.7349C119.612 23.7349 118.701 24.087 118.006 24.7912C117.311 25.4953 116.963 26.4151 116.963 27.5492C116.963 28.6839 117.311 29.6033 118.006 30.3075C118.701 31.0116 119.612 31.3637 120.74 31.3637C121.869 31.3637 122.781 31.0116 123.475 30.3075ZM118.882 34.151C118.106 33.7403 117.486 33.1637 117.023 32.4199H116.963V34.0062C116.963 34.0913 116.928 34.1729 116.866 34.2331C116.804 34.2933 116.72 34.3271 116.632 34.3271H113.576C113.489 34.3271 113.404 34.2933 113.342 34.2331C113.281 34.1729 113.246 34.0913 113.246 34.0062V14.1088C113.246 14.0237 113.281 13.9421 113.342 13.8819C113.404 13.8217 113.489 13.7879 113.576 13.7879H116.632C116.72 13.7879 116.804 13.8217 116.866 13.8819C116.928 13.9421 116.963 14.0237 116.963 14.1088V22.6785H117.023C117.486 21.9352 118.106 21.3581 118.882 20.9474C119.657 20.5365 120.589 20.3311 121.677 20.3311C122.906 20.3311 124.035 20.6148 125.062 21.182C126.09 21.7497 126.9 22.5758 127.495 23.6611C128.089 24.7473 128.387 26.0436 128.387 27.5494C128.387 29.0559 128.089 30.3515 127.495 31.4373C126.901 32.5228 126.09 33.3495 125.062 33.9164C124.035 34.4836 122.906 34.7675 121.678 34.7675C120.59 34.7675 119.658 34.5621 118.882 34.1512L118.882 34.151ZM133.536 34.3273H130.48C130.392 34.3273 130.308 34.2935 130.246 34.2333C130.184 34.1731 130.149 34.0915 130.149 34.0064V14.1094C130.149 14.0243 130.184 13.9427 130.246 13.8825C130.308 13.8224 130.392 13.7886 130.48 13.7886H133.536C133.623 13.7886 133.707 13.8224 133.769 13.8825C133.831 13.9427 133.866 14.0243 133.866 14.1094V34.0064C133.866 34.0915 133.831 34.1731 133.769 34.2333C133.707 34.2935 133.623 34.3273 133.536 34.3273ZM140.745 23.9112C140.238 24.2949 139.896 24.8489 139.719 25.5736C139.67 25.7734 139.831 25.9651 140.042 25.9651H145.858C146.06 25.9651 146.219 25.7897 146.186 25.5963C146.07 24.9107 145.767 24.3642 145.278 23.9553C144.704 23.4761 143.953 23.2365 143.026 23.2365C142.099 23.2365 141.339 23.4614 140.745 23.9112ZM148.194 22.2239C149.383 23.486 149.977 25.271 149.977 27.5787V27.962C149.977 28.0471 149.942 28.1287 149.88 28.1889C149.818 28.2491 149.734 28.2829 149.647 28.2829H139.93C139.882 28.283 139.834 28.2933 139.79 28.3132C139.746 28.3331 139.707 28.362 139.676 28.398C139.645 28.434 139.622 28.4761 139.61 28.5215C139.597 28.5668 139.595 28.6143 139.603 28.6606C139.758 29.5179 140.149 30.199 140.775 30.7036C141.49 31.2811 142.392 31.5693 143.48 31.5693C144.884 31.5693 146.184 31.0371 147.38 29.9725C147.526 29.8424 147.757 29.87 147.871 30.0281L149.356 32.0987C149.403 32.1631 149.423 32.2418 149.414 32.32C149.405 32.3982 149.366 32.4703 149.306 32.5226C148.576 33.1424 147.766 33.6654 146.895 34.0779C145.927 34.5373 144.789 34.7675 143.48 34.7675C141.969 34.7675 140.649 34.4689 139.521 33.8725C138.392 33.2762 137.516 32.4351 136.892 31.3491C136.267 30.2636 135.955 29.0069 135.955 27.5787C135.955 26.1511 136.257 24.8896 136.861 23.7938C137.466 22.6986 138.312 21.8477 139.4 21.2411C140.488 20.6351 141.757 20.3316 143.208 20.3316C145.343 20.3316 147.005 20.9626 148.194 22.2239ZM73.0635 15.9973C73.0635 17.2075 72.0529 18.1887 70.8062 18.1887C69.5592 18.1887 68.5487 17.2075 68.5487 15.9971C68.5487 14.7866 69.5594 13.8055 70.8062 13.8055C72.0529 13.8055 73.0635 14.7866 73.0635 15.9971V15.9973ZM20.9346 38.3131V24.2779C20.9346 24.0885 20.9932 23.9034 21.1028 23.7468C21.2124 23.5901 21.3679 23.469 21.5492 23.3992L37.8096 17.2713C38.4487 17.0254 39.142 17.4825 39.142 18.15V32.1853C39.1421 32.3747 39.0835 32.5598 38.9739 32.7165C38.8643 32.8731 38.7087 32.9942 38.5274 33.064L22.267 39.1918C21.6279 39.4378 20.9346 38.9805 20.9346 38.3131ZM12.3117 27.2641L12.3117 27.2641L11.8217 27.494L1.63496 32.233C0.989446 32.5355 0.165039 32.0786 0.165039 31.3821V18.2088C0.165039 17.9569 0.298107 17.7393 0.47656 17.5757C0.476604 17.5756 0.476648 17.5756 0.476692 17.5756L0.476587 17.5755C0.540648 17.5136 0.612238 17.4596 0.689731 17.4147C0.697168 17.4104 0.70466 17.4062 0.712205 17.402C0.715894 17.4 0.719595 17.398 0.723309 17.396C0.814518 17.3428 0.920351 17.3043 1.03258 17.2828C1.18794 17.2531 1.35556 17.2562 1.51362 17.2987C1.54587 17.3074 1.57772 17.3177 1.60899 17.3297L17.0564 23.2723C17.8416 23.5747 17.9033 24.643 17.1375 25.0021C17.1374 25.0021 17.1374 25.0021 17.1374 25.0021V25.0019L12.3117 27.2641Z" fill="white"/>
</svg>
