<svg width="150" height="54" viewBox="0 0 150 54" fill="none" xmlns="http://www.w3.org/2000/svg">
<path fill-rule="evenodd" clip-rule="evenodd" d="M3.83534 21.4973H17.2841L11.4864 3.66791C11.2013 2.7383 9.89443 2.7383 9.60929 3.66791L3.83534 21.4973ZM105.557 16.1581H108.48V35.3223H117.414V38.0396H105.557V16.1581ZM125.065 35.7275C126.728 35.7275 127.964 34.9648 128.7 34.202V30.126C128.201 30.0307 127.227 29.9592 126.633 29.9592C123.426 29.9592 121.929 31.008 121.929 33.1771C121.929 34.6311 122.831 35.7275 125.065 35.7275ZM119.457 23.1898C121.144 21.7834 123.307 20.9492 125.683 20.9492C130.031 20.9492 131.576 23.3089 131.599 26.8605V38.0635H129.532L129.009 35.9182C128.32 37.4914 126.301 38.4687 124.186 38.4687C121.049 38.4687 118.982 36.7763 118.982 33.3916C118.982 29.6255 121.572 27.8139 126.705 27.8139C127.322 27.8139 128.273 27.8855 128.748 27.9808V26.9082C128.748 24.8344 127.679 23.595 125.279 23.595C123.164 23.595 121.691 24.31 120.503 25.0013L119.457 23.1898ZM138.229 35.37C138.965 35.7037 139.939 35.8467 141.032 35.8467C144.193 35.8467 145.975 33.6776 145.951 29.0773C145.951 25.8356 144.858 23.8333 142.03 23.8333C140.462 23.8333 139.227 24.4292 138.229 25.2635V35.37ZM138.229 22.7369C138.229 22.7369 139.654 20.9492 142.268 20.9492C146.569 20.9492 148.992 24.1194 148.992 28.8866C148.992 34.9409 146.355 38.4448 140.89 38.4448C138.751 38.4448 136.779 38.1111 135.354 37.5152V16.1581H138.229V19.9004V22.7369ZM81.9623 20.2818C80.8693 19.3998 79.1823 18.5417 76.5923 18.5417C72.1965 18.5417 69.2026 21.3782 69.2026 27.218C69.2026 32.9625 72.1015 35.7037 76.426 35.7037C77.9942 35.7037 79.1585 35.4415 79.8238 35.1078L79.7526 28.5767H74.6439V25.8594H82.6514V28.6005L82.7227 37.2054C81.2258 37.8251 78.9447 38.4687 76.2359 38.4687C70.8421 38.4687 66.1374 35.3223 66.1374 27.2657C66.1374 19.5905 70.5095 15.7767 76.7349 15.7767C79.1823 15.7767 81.5109 16.5872 83.2217 18.0888L81.9623 20.2818ZM94.3419 16.1581H97.217L97.1932 21.3544H101.993V23.738H97.1932V32.4858C97.1932 34.5596 98.2625 35.799 100.662 35.799C101.138 35.799 101.589 35.7752 101.993 35.7037V38.278C101.423 38.3972 100.829 38.4448 100.235 38.4448C95.8864 38.4448 94.3419 36.0851 94.3419 32.5335V19.8289V16.1581ZM89.9461 38.0396H87.071V21.3544H89.9461V38.0396ZM89.9461 19.0423H87.071V16.1581H89.9461V19.0423ZM36.4594 21.4974L26.86 51.1017L17.2605 21.4973H36.4359L42.2098 3.66806C42.5187 2.76228 43.8018 2.76228 44.0869 3.66806L49.8846 21.4974H49.8849L49.885 21.4973L49.885 21.4974H49.9084L49.8919 21.5186L52.8076 30.4835C53.069 31.2939 52.7838 32.1997 52.0948 32.7002L26.8842 51.0778L31.2395 45.4766L26.8601 51.1017L36.4596 21.4974H36.4594ZM26.8599 51.1017L17.2604 21.4973H3.8358H3.83534L3.83567 21.4977L0.913183 30.4835C0.65181 31.2939 0.936944 32.1997 1.62602 32.7002L26.8366 51.0778L5.8465 24.0832L26.8599 51.1017Z" fill="white"/>
</svg>
