<svg width="150" height="49" viewBox="0 0 150 49" fill="none" xmlns="http://www.w3.org/2000/svg">
<g clip-path="url(#clip0_229_5208)">
<path d="M11.1169 12.4355C17.2678 12.4355 22.2777 17.4455 22.2777 23.646C22.2777 29.8464 17.2678 34.8564 11.1169 34.8564C4.96603 34.8564 -0.0439453 29.896 -0.0439453 23.646C-0.0439453 17.3959 4.96603 12.4355 11.1169 12.4355ZM98.6179 12.1875V31.8306C98.6179 33.3187 99.2131 33.7155 100.354 34.0131L100.404 34.2612H94.1039V31.8306C93.3599 33.6163 91.8222 34.7076 89.838 34.7076C86.465 34.7076 84.2328 31.6322 84.2328 27.0686C84.2328 24.4892 84.9769 22.3067 86.3658 20.6697C87.7051 19.0824 89.5404 18.2392 91.5742 18.2392C92.5662 18.2392 93.4095 18.4376 94.1039 18.884V16.2054C94.1039 15.6102 93.9551 15.2133 93.6575 14.9157C93.2607 14.5685 92.6158 14.4197 91.6238 14.5189H91.5742V14.2709L98.6179 12.1875ZM122.527 18.2888V31.8306C122.527 33.3187 123.122 33.7155 124.263 34.0131V34.2612H117.963V31.781C117.219 33.5667 115.582 34.7076 113.747 34.7076C111.564 34.7076 110.176 33.7155 109.63 31.781L109.531 31.2849C109.432 30.7889 109.382 30.2929 109.382 29.7968V22.5547C109.382 20.9674 109.035 20.4713 107.646 20.3721H107.596V20.1241L113.896 18.2888V29.6976C113.896 31.3841 114.64 32.3266 116.029 32.3266C116.872 32.3266 117.567 31.8802 117.963 31.1361V22.5547C117.963 20.9178 117.666 20.4217 116.525 20.3225H116.475V20.0745L122.527 18.2888ZM77.0403 18.2392C78.7268 18.2392 80.3637 18.8344 81.455 19.8761C82.6951 21.0666 83.3399 22.8027 83.3895 25.0845V25.1341H73.9152C73.7168 28.4079 75.7506 31.0865 78.4292 31.1857C80.3637 31.3345 82.0502 30.1441 82.9927 28.2095L83.2407 28.3087C82.6951 31.9298 80.5621 34.658 76.8419 34.658C72.6255 34.658 70.2446 31.1361 70.1453 26.7214V25.5805C70.3438 23.646 70.939 21.9098 71.9807 20.6201C72.6255 19.8265 73.3696 19.2312 74.2625 18.8344C75.0065 18.4376 76.0978 18.2392 76.9907 18.2392H77.0403ZM142.666 18.2888C145.345 18.2888 146.982 19.9753 146.982 22.8523V32.0786C146.982 33.1699 147.478 33.7155 148.718 34.0131H148.767V34.2612H142.418V23.0011C142.418 21.2154 141.773 20.3225 140.434 20.3225C139.343 20.3225 138.797 21.1162 138.499 21.8106C138.549 22.1579 138.598 22.5051 138.598 22.8523V32.2274C138.598 33.3683 138.946 33.7651 139.938 34.0131H139.987V34.2612H134.085V23.0011C134.085 21.2154 133.39 20.3225 132.1 20.3225C131.059 20.3225 130.513 21.0666 130.265 21.6618V32.277C130.265 33.4179 130.612 33.8147 131.604 34.0627H131.654V34.3108H125.751V22.5051C125.751 20.9178 125.354 20.4217 124.015 20.3225H123.965V20.0745L130.265 18.3384V20.9674C130.91 19.2808 132.398 18.2888 134.283 18.2888C136.416 18.2888 137.904 19.3304 138.4 21.2154C139.045 19.4296 140.682 18.2888 142.666 18.2888ZM52.1888 13.1796L58.0916 27.019L63.9945 13.1796H70.3438L70.2942 13.4276L70.2221 13.4436C69.1282 13.6929 68.558 14.102 68.558 15.4613V32.3266C68.6572 33.4179 69.2525 33.7651 70.2942 34.0131H70.3438V34.2612H62.2584V34.0131H62.308C63.3496 33.7651 63.9449 33.4179 64.0441 32.3266V15.9078L56.2563 34.2116H55.8099L48.2205 16.4038V31.9298C48.2205 33.3187 48.8157 33.7155 49.9566 33.9635H50.0062V34.2116H45.3435V33.9635H45.3931C46.534 33.7155 47.1292 33.3187 47.1292 31.9298V15.4613C47.1292 14.0724 46.534 13.6756 45.3931 13.4276H45.3435V13.1796H52.1888ZM106.306 18.2888V31.8306L106.307 31.9222C106.332 33.3352 106.925 33.7217 108.043 34.0131L108.092 34.2612H101.793V22.5547C101.793 20.9674 101.445 20.4713 100.056 20.3721H100.007V20.1241L106.306 18.2888ZM28.9742 13.0804C32.0001 13.0804 34.5299 17.8423 34.5299 23.646C34.5299 29.4992 32.0497 34.2116 28.9742 34.2116C25.8988 34.2116 23.4186 29.4992 23.4186 23.646C23.4186 17.7927 25.8988 13.0804 28.9742 13.0804ZM37.5061 14.1716C38.647 14.1716 39.4902 18.4376 39.4902 23.646C39.4902 28.8544 38.5974 33.1203 37.5061 33.1203C36.4257 33.1203 35.5398 28.9392 35.5222 23.8019L35.5219 23.646C35.5219 18.4376 36.4148 14.1716 37.5061 14.1716ZM92.3182 19.132C90.3341 19.132 89.094 21.761 89.094 25.8285C89.094 27.7631 89.4412 29.4496 90.0364 30.5905C90.5821 31.6818 91.3757 32.277 92.2686 32.277C93.1615 32.277 93.8063 31.8802 94.1039 31.1361V20.2233C93.7567 19.5289 93.1119 19.132 92.3182 19.132ZM76.9907 19.1816C75.2049 19.1816 74.1632 21.3146 74.0144 24.2908V24.3404H79.4212C79.5205 22.009 79.1236 20.4713 78.3796 19.7273C77.9827 19.38 77.5363 19.1816 76.9907 19.1816ZM103.876 12.3363C105.314 12.3363 106.406 13.4276 106.406 14.8661C106.406 16.3046 105.314 17.3959 103.876 17.3959C102.437 17.3959 101.346 16.3046 101.346 14.8661C101.346 13.4276 102.437 12.3363 103.876 12.3363Z" fill="white"/>
</g>
<defs>
<clipPath id="clip0_229_5208">
<rect width="150" height="49" fill="white"/>
</clipPath>
</defs>
</svg>
