<svg width="150" height="51" viewBox="0 0 150 51" fill="none" xmlns="http://www.w3.org/2000/svg">
<g clip-path="url(#clip0_229_5209)">
<path d="M21.764 3.74219C9.40402 3.74219 -0.616211 13.7621 -0.616211 26.1221C-0.616211 38.4826 9.40402 48.5018 21.764 48.5018C34.1253 48.5018 44.1445 38.4826 44.1445 26.1221C44.1445 13.7629 34.1253 3.74326 21.7637 3.74326L21.764 3.74219ZM32.0274 36.0205C31.6266 36.6779 30.766 36.8864 30.1086 36.4828C24.8539 33.2732 18.239 32.5463 10.4487 34.3261C9.69799 34.4972 8.94969 34.0268 8.77866 33.2758C8.60681 32.5249 9.0753 31.7766 9.82787 31.6055C18.3531 29.6578 25.6658 30.4965 31.5651 34.1016C32.2225 34.5052 32.431 35.3631 32.0274 36.0205ZM34.7667 29.9267C34.2616 30.7477 33.1873 31.0069 32.3668 30.5018C26.3511 26.8041 17.181 25.7333 10.0655 27.8932C9.14265 28.1719 8.16799 27.6519 7.88791 26.7307C7.60998 25.8078 8.13031 24.8351 9.05152 24.5544C17.1794 22.0883 27.2838 23.2829 34.1921 27.5281C35.0126 28.0332 35.2718 29.1076 34.7667 29.9269V29.9267ZM35.0019 23.5811C27.7889 19.2969 15.8883 18.9029 9.00154 20.9931C7.89567 21.3285 6.72618 20.7042 6.39105 19.5983C6.05592 18.4919 6.67968 17.3232 7.78636 16.987C15.6918 14.5871 28.8338 15.0508 37.1383 19.9808C38.1351 20.5711 38.4612 21.8558 37.8706 22.8491C37.2826 23.8438 35.9945 24.1717 35.003 23.5811H35.0019ZM60.273 24.4021C56.4085 23.4806 55.7217 22.8339 55.7217 21.4749C55.7217 20.1911 56.9297 19.3271 58.7283 19.3271C60.4707 19.3271 62.1972 19.9832 64.0091 21.3338C64.0626 21.3747 64.132 21.391 64.1988 21.3803C64.2683 21.3702 64.3271 21.333 64.3672 21.2772L66.254 18.6175C66.3315 18.5079 66.3101 18.3569 66.2059 18.2733C64.0492 16.5434 61.6226 15.7024 58.7844 15.7024C54.6126 15.7024 51.6969 18.2062 51.6969 21.7887C51.6969 25.6304 54.2118 26.9907 58.5572 28.0407C62.2533 28.8924 62.8786 29.606 62.8786 30.8813C62.8786 32.295 61.6172 33.1743 59.5861 33.1743C57.3306 33.1743 55.4892 32.4126 53.4314 30.6328C53.3806 30.5873 53.3111 30.5686 53.247 30.5713C53.1775 30.5766 53.116 30.6087 53.0733 30.6595L50.9567 33.177C50.8685 33.2839 50.8792 33.4389 50.9807 33.5297C53.3753 35.6677 56.3204 36.7955 59.5006 36.7955C63.9957 36.7955 66.9007 34.3395 66.9007 30.5365C66.9088 27.3277 64.9872 25.5505 60.281 24.4056L60.273 24.4021ZM77.0722 20.5911C75.124 20.5911 73.5258 21.3587 72.2056 22.9314V21.1612C72.2056 21.0214 72.0934 20.9076 71.9544 20.9076H68.4935C68.3546 20.9076 68.2423 21.0214 68.2423 21.1612V40.831C68.2423 40.9699 68.3546 41.0849 68.4935 41.0849H71.9544C72.0934 41.0849 72.2056 40.9699 72.2056 40.831V34.6228C73.5258 36.1007 75.124 36.8249 77.0722 36.8249C80.6935 36.8249 84.3601 34.0375 84.3601 28.7088C84.3654 23.3791 80.6988 20.5909 77.0749 20.5909L77.0722 20.5911ZM80.3353 28.7088C80.3353 31.4211 78.665 33.3159 76.2705 33.3159C73.9053 33.3159 72.1201 31.3356 72.1201 28.7088C72.1201 26.0818 73.9053 24.102 76.2705 24.102C78.6249 24.1017 80.3353 26.0387 80.3353 28.7086V28.7088ZM93.7539 20.5911C89.0904 20.5911 85.4371 24.1819 85.4371 28.7668C85.4371 33.3026 89.0664 36.8543 93.6978 36.8543C98.3773 36.8543 102.041 33.2758 102.041 28.7088C102.041 24.1573 98.4014 20.5917 93.7539 20.5917V20.5911ZM93.7539 33.3427C91.2738 33.3427 89.4031 31.349 89.4031 28.7075C89.4031 26.054 91.2097 24.1285 93.6978 24.1285C96.1939 24.1285 98.0753 26.1213 98.0753 28.7655C98.0753 31.4185 96.258 33.3427 93.7539 33.3427ZM111.999 20.9076H108.191V17.0148C108.191 16.8753 108.078 16.7615 107.939 16.7615H104.479C104.34 16.7615 104.225 16.8753 104.225 17.0148V20.9076H102.562C102.423 20.9076 102.311 21.0214 102.311 21.1612V24.1349C102.311 24.2744 102.423 24.3885 102.562 24.3885H104.225V32.0839C104.225 35.192 105.772 36.7688 108.827 36.7688C110.067 36.7688 111.096 36.5122 112.066 35.9617C112.146 35.9189 112.194 35.8334 112.194 35.7425V32.9097C112.194 32.8242 112.149 32.7413 112.074 32.6959C111.999 32.6478 111.905 32.6451 111.828 32.6852C111.162 33.0193 110.518 33.1743 109.797 33.1743C108.688 33.1743 108.191 32.6692 108.191 31.5414V24.3898H111.999C112.138 24.3898 112.25 24.276 112.25 24.1362V21.1628C112.256 21.023 112.143 20.9092 112.002 20.9092L111.999 20.9076ZM125.265 20.9228V20.4447C125.265 19.0382 125.805 18.4109 127.013 18.4109C127.735 18.4109 128.315 18.5542 128.964 18.7707C129.044 18.7958 129.127 18.7832 129.191 18.7354C129.258 18.6875 129.295 18.6108 129.295 18.5296V15.6139C129.295 15.5025 129.226 15.4039 129.116 15.371C128.432 15.1671 127.556 14.9578 126.241 14.9578C123.047 14.9578 121.355 16.7575 121.355 20.1603V20.8926H119.693C119.554 20.8926 119.439 21.0065 119.439 21.146V24.1349C119.439 24.2744 119.554 24.3885 119.693 24.3885H121.355V36.2557C121.355 36.3973 121.47 36.5095 121.609 36.5095H125.067C125.209 36.5095 125.321 36.3973 125.321 36.2557V24.3893H128.552L133.502 36.2557C132.941 37.501 132.387 37.7496 131.634 37.7496C131.024 37.7496 130.38 37.5679 129.726 37.2071C129.664 37.175 129.589 37.1697 129.525 37.1884C129.458 37.2124 129.402 37.2605 129.376 37.3247L128.202 39.8983C128.146 40.0212 128.194 40.1628 128.312 40.227C129.536 40.8898 130.64 41.173 132.005 41.173C134.56 41.173 135.974 39.9811 137.217 36.7795L143.219 21.2692C143.251 21.1911 143.24 21.1029 143.192 21.0337C143.147 20.965 143.069 20.9236 142.986 20.9236H139.384C139.274 20.9236 139.178 20.9923 139.143 21.0936L135.453 31.6323L131.412 21.0866C131.375 20.9885 131.281 20.9236 131.177 20.9236H125.265V20.9228ZM117.574 20.9076H114.113C113.974 20.9076 113.859 21.0214 113.859 21.1612V36.2557C113.859 36.3973 113.974 36.5095 114.113 36.5095H117.574C117.713 36.5095 117.828 36.3973 117.828 36.2557V21.1623C117.828 21.0225 117.715 20.9086 117.574 20.9086V20.9076ZM115.863 14.0342C114.492 14.0342 113.381 15.1438 113.381 16.5145C113.381 17.8861 114.492 18.997 115.863 18.997C117.234 18.997 118.343 17.8861 118.343 16.5145C118.343 15.1441 117.232 14.0342 115.863 14.0342ZM146.175 25.7611C144.806 25.7611 143.74 24.6613 143.74 23.3259C143.74 21.9905 144.82 20.8782 146.188 20.8782C147.556 20.8782 148.623 21.9776 148.623 23.312C148.623 24.6474 147.543 25.7611 146.175 25.7611ZM146.188 21.1203C144.94 21.1203 143.997 22.1118 143.997 23.3259C143.997 24.5395 144.935 25.5176 146.175 25.5176C147.423 25.5176 148.366 24.5269 148.366 23.312C148.366 22.0984 147.428 21.1203 146.188 21.1203ZM146.728 23.5624L147.417 24.5267H146.835L146.215 23.6421H145.683V24.5267H145.197V21.9707H146.335C146.931 21.9707 147.321 22.2745 147.321 22.7861C147.324 23.2051 147.081 23.4611 146.731 23.5624H146.728ZM146.316 22.4092H145.683V23.2177H146.316C146.632 23.2177 146.822 23.0629 146.822 22.8131C146.822 22.5501 146.632 22.4092 146.316 22.4092Z" fill="white"/>
</g>
<defs>
<clipPath id="clip0_229_5209">
<rect width="150" height="51" fill="white"/>
</clipPath>
</defs>
</svg>
