<svg width="150" height="54" viewBox="0 0 150 54" fill="none" xmlns="http://www.w3.org/2000/svg">
<path fill-rule="evenodd" clip-rule="evenodd" d="M19.3939 7.40234C8.76779 7.40234 0.161133 16.009 0.161133 26.6351C0.161133 35.1456 5.66651 42.3339 13.3115 44.8822C14.2732 45.0505 14.6338 44.4735 14.6338 43.9686C14.6338 43.5119 14.6097 41.9973 14.6097 40.3865C9.77752 41.2761 8.52739 39.2085 8.14273 38.1267C7.92636 37.5737 6.98876 35.8668 6.17137 35.4101C5.49823 35.0494 4.53659 34.1599 6.14733 34.1359C7.66191 34.1118 8.74375 35.5303 9.10437 36.1072C10.8353 39.0162 13.6 38.1988 14.7059 37.694C14.8742 36.4438 15.3791 35.6024 15.932 35.1216C11.6527 34.6407 7.18109 32.9819 7.18109 25.6254C7.18109 23.5338 7.92636 21.8029 9.15245 20.4566C8.96012 19.9758 8.28698 18.0044 9.34478 15.3599C9.34478 15.3599 10.9555 14.855 14.6338 17.3313C16.1724 16.8985 17.8072 16.6822 19.442 16.6822C21.0768 16.6822 22.7116 16.8985 24.2502 17.3313C27.9284 14.831 29.5392 15.3599 29.5392 15.3599C30.597 18.0044 29.9238 19.9758 29.7315 20.4566C30.9576 21.8029 31.7029 23.5098 31.7029 25.6254C31.7029 33.006 27.2072 34.6407 22.9279 35.1216C23.6251 35.7226 24.2261 36.8766 24.2261 38.6796C24.2261 41.252 24.2021 43.3195 24.2021 43.9686C24.2021 44.4735 24.5627 45.0745 25.5243 44.8822C29.3424 43.5933 32.6601 41.1394 35.0105 37.8661C37.3609 34.5928 38.6256 30.6649 38.6267 26.6351C38.6267 16.009 30.02 7.40234 19.3939 7.40234Z" fill="white"/>
<path d="M89.8211 35.9183H89.7762C89.7964 35.9183 89.8099 35.9407 89.8301 35.943H89.8435L89.8211 35.9205V35.9183ZM89.8301 35.943C89.6214 35.9452 89.0963 36.0552 88.5421 36.0552C86.7919 36.0552 86.1861 35.2474 86.1861 34.1928V27.1674H89.7538C89.9557 27.1674 90.1128 26.9879 90.1128 26.741V22.9265C90.1128 22.7246 89.9333 22.5451 89.7538 22.5451H86.1861V17.8106C86.1861 17.6311 86.0739 17.5189 85.8719 17.5189H81.0253C80.8234 17.5189 80.7112 17.6311 80.7112 17.8106V22.6797C80.7112 22.6797 78.2654 23.2856 78.1083 23.308C77.9288 23.3529 77.8166 23.5099 77.8166 23.6894V26.741C77.8166 26.9879 77.9961 27.1674 78.1981 27.1674H80.6887V34.5271C80.6887 40.002 84.5032 40.563 87.106 40.563C88.2953 40.563 89.7313 40.1815 89.9557 40.0694C90.0903 40.0245 90.1576 39.8674 90.1576 39.7103V36.3446C90.1607 36.2491 90.1293 36.1558 90.0692 36.0816C90.009 36.0074 89.9241 35.9574 89.8301 35.9407V35.943ZM143 31.0043C143 26.943 141.362 26.4045 139.634 26.584C138.288 26.6737 137.211 27.3469 137.211 27.3469V35.2451C137.211 35.2451 138.31 36.008 139.948 36.0529C142.259 36.1202 143 35.29 143 31.0043ZM148.452 30.6453C148.452 38.3416 145.962 40.5406 141.609 40.5406C137.929 40.5406 135.954 38.6782 135.954 38.6782C135.954 38.6782 135.864 39.7103 135.752 39.845C135.685 39.9796 135.573 40.0245 135.438 40.0245H132.117C131.893 40.0245 131.691 39.845 131.691 39.643L131.736 14.7142C131.736 14.5122 131.915 14.3327 132.117 14.3327H136.896C137.098 14.3327 137.278 14.5122 137.278 14.7142V23.1734C137.278 23.1734 139.118 21.9841 141.81 21.9841L141.788 21.9393C144.481 21.9393 148.452 22.949 148.452 30.6453ZM128.886 22.5451H124.174C123.927 22.5451 123.793 22.7246 123.793 22.9714V35.1778C123.793 35.1778 122.558 36.0529 120.876 36.0529C119.193 36.0529 118.699 35.29 118.699 33.6071V22.949C118.699 22.747 118.52 22.5675 118.318 22.5675H113.516C113.314 22.5675 113.134 22.747 113.134 22.949V34.4149C113.134 39.3513 115.894 40.5854 119.686 40.5854C122.805 40.5854 125.341 38.8577 125.341 38.8577C125.341 38.8577 125.453 39.7328 125.52 39.8674C125.565 39.9796 125.722 40.0694 125.879 40.0694H128.886C129.133 40.0694 129.267 39.8898 129.267 39.6879L129.312 22.9265C129.312 22.7246 129.133 22.5451 128.886 22.5451ZM75.7074 22.5227H70.9281C70.7261 22.5227 70.5466 22.7246 70.5466 22.9714V39.4411C70.5466 39.8898 70.8383 40.0469 71.2198 40.0469H75.5279C75.9767 40.0469 76.0889 39.845 76.0889 39.4411V22.9041C76.0889 22.7022 75.9094 22.5227 75.7074 22.5227ZM73.3514 14.9385C71.6237 14.9385 70.2549 16.3073 70.2549 18.035C70.2549 19.7628 71.6237 21.1315 73.3514 21.1315C75.0343 21.1315 76.403 19.7628 76.403 18.035C76.403 16.3073 75.0343 14.9385 73.3514 14.9385ZM110.352 14.3776H105.618C105.416 14.3776 105.236 14.5571 105.236 14.759V23.9363H97.8091V14.759C97.8091 14.5571 97.6296 14.3776 97.4276 14.3776H92.6483C92.4464 14.3776 92.2668 14.5571 92.2668 14.759V39.6879C92.2668 39.8898 92.4688 40.0694 92.6483 40.0694H97.4276C97.6296 40.0694 97.8091 39.8898 97.8091 39.6879V29.0297H105.236L105.191 39.6879C105.191 39.8898 105.371 40.0694 105.573 40.0694H110.352C110.554 40.0694 110.734 39.8898 110.734 39.6879V14.759C110.734 14.5571 110.554 14.3776 110.352 14.3776ZM68.0111 25.4172V38.2967C68.0111 38.3865 67.9887 38.5436 67.8765 38.5884C67.8765 38.5884 65.0717 40.5854 60.4494 40.5854C54.8623 40.5854 48.243 38.8352 48.243 27.302C48.243 15.7688 54.0321 13.3903 59.6865 13.4127C64.5781 13.4127 66.5526 14.5122 66.8668 14.7142C66.9565 14.8263 67.0014 14.9161 67.0014 15.0283L66.059 19.0223C66.059 19.2242 65.857 19.4711 65.6102 19.4037C64.8025 19.1569 63.5908 18.6633 60.7411 18.6633C57.4427 18.6633 53.8975 19.6057 53.8975 27.0327C53.8975 34.4598 57.2632 35.3349 59.6865 35.3349C61.7509 35.3349 62.4913 35.0881 62.4913 35.0881V29.9273H59.1929C58.9461 29.9273 58.7666 29.7478 58.7666 29.5458V25.4172C58.7666 25.2152 58.9461 25.0357 59.1929 25.0357H67.5848C67.8316 25.0357 68.0111 25.2152 68.0111 25.4172Z" fill="white"/>
</svg>
