<svg width="100" height="50" viewBox="0 0 100 50" fill="none" xmlns="http://www.w3.org/2000/svg">
<path fill-rule="evenodd" clip-rule="evenodd" d="M81.3057 20.3674C81.685 21.0219 81.8091 21.7666 81.8501 22.6037L81.904 23.7195V31.5219L81.959 32.6388C82.0691 34.463 83.4143 35.8117 85.2525 35.9265L86.3636 35.9815V23.7195L86.4187 22.6037C86.4643 21.7759 86.5873 21.0172 86.9725 20.3581C87.365 19.682 87.9285 19.121 88.6063 18.7315C89.2842 18.3421 90.0526 18.1378 90.8344 18.1392C91.6162 18.1406 92.3838 18.3477 93.0603 18.7396C93.7367 19.1316 94.2981 19.6946 94.6882 20.3721C95.0675 21.0266 95.1858 21.7853 95.2315 22.6037L95.2865 23.716V31.5219L95.3415 32.6388C95.4562 34.4723 96.791 35.8211 98.635 35.9265L99.7461 35.9815V22.6037C99.7461 20.2381 98.8067 17.9694 97.1343 16.2964C95.4619 14.6233 93.1936 13.683 90.828 13.682C89.5619 13.6807 88.3101 13.9496 87.1562 14.4707C86.0023 14.9918 84.9729 15.7532 84.1367 16.7039C83.3002 15.7536 82.2708 14.9924 81.117 14.4711C79.9632 13.9498 78.7116 13.6804 77.4455 13.6809C75.5932 13.6809 73.8745 14.2429 72.4508 15.2135C71.582 14.244 69.6384 13.6809 68.5226 13.6809V35.9815L69.6384 35.9265C71.5047 35.8036 72.8535 34.4911 72.9261 32.6388L72.9858 31.5219V23.7195L73.0408 22.6037C73.0877 21.7619 73.2048 21.0219 73.5853 20.3627C73.9781 19.6871 74.5414 19.1262 75.2187 18.7363C75.8961 18.3464 76.6639 18.1409 77.4455 18.1405C78.2277 18.1407 78.9961 18.3465 79.6736 18.7374C80.3511 19.1282 80.914 19.6904 81.3057 20.3674ZM4.96455 35.9277L6.08034 35.9815H22.8055L22.7505 34.8692C22.5995 33.0357 21.301 31.6963 19.4617 31.5769L18.3459 31.5219H8.31193L21.6897 18.1394L21.6347 17.0282C21.5481 15.176 20.1946 13.8378 18.3459 13.7359L17.2301 13.6855L0.504883 13.6809L0.559911 14.7967C0.706264 16.6126 2.02344 17.9801 3.84758 18.0855L4.96455 18.1405H14.9985L1.62068 31.523L1.67571 32.6388C1.78576 34.477 3.1123 35.8082 4.96455 35.9265V35.9277ZM64.1449 16.9451C65.1805 17.9805 66.002 19.2097 66.5625 20.5626C67.123 21.9155 67.4115 23.3656 67.4115 24.83C67.4115 26.2944 67.123 27.7445 66.5625 29.0974C66.002 30.4503 65.1805 31.6795 64.1449 32.7149C62.0527 34.8055 59.216 35.9798 56.2583 35.9798C53.3006 35.9798 50.4639 34.8055 48.3716 32.7149C44.0173 28.3606 44.0173 21.2994 48.3716 16.9451C49.4063 15.9101 50.6347 15.089 51.9867 14.5287C53.3387 13.9684 54.7878 13.6799 56.2513 13.6797C57.7171 13.6787 59.1688 13.9667 60.5233 14.5272C61.8778 15.0877 63.1084 15.9097 64.1449 16.9463V16.9451ZM60.9896 20.1028C62.2438 21.358 62.9483 23.0597 62.9483 24.8341C62.9483 26.6085 62.2438 28.3103 60.9896 29.5654C59.7344 30.8196 58.0327 31.5241 56.2583 31.5241C54.4839 31.5241 52.7821 30.8196 51.527 29.5654C50.2728 28.3103 49.5683 26.6085 49.5683 24.8341C49.5683 23.0597 50.2728 21.358 51.527 20.1028C52.7821 18.8486 54.4839 18.1441 56.2583 18.1441C58.0327 18.1441 59.7344 18.8486 60.9896 20.1028ZM32.8489 13.6797C34.3124 13.6801 35.7616 13.9687 37.1136 14.5292C38.4656 15.0897 39.6939 15.911 40.7285 16.9463C45.084 21.2994 45.084 28.3618 40.7285 32.7149C38.6362 34.8055 35.7995 35.9798 32.8418 35.9798C29.8841 35.9798 27.0474 34.8055 24.9552 32.7149C20.6009 28.3606 20.6009 21.2994 24.9552 16.9451C25.9898 15.9101 27.2182 15.089 28.5702 14.5287C29.9222 13.9684 31.3713 13.6799 32.8348 13.6797H32.8489ZM37.5731 20.1005C38.8277 21.3557 39.5324 23.0577 39.5324 24.8324C39.5324 26.607 38.8277 28.309 37.5731 29.5642C36.318 30.8184 34.6162 31.523 32.8418 31.523C31.0675 31.523 29.3657 30.8184 28.1105 29.5642C26.8563 28.3091 26.1518 26.6073 26.1518 24.8329C26.1518 23.0586 26.8563 21.3568 28.1105 20.1017C29.3657 18.8475 31.0675 18.1429 32.8418 18.1429C34.6162 18.1429 36.318 18.8475 37.5731 20.1017V20.1005Z" fill="white"/>
</svg>
