<svg width="88" height="100" viewBox="0 0 88 100" fill="none" xmlns="http://www.w3.org/2000/svg">
<mask id="mask0_229_5765" style="mask-type:luminance" maskUnits="userSpaceOnUse" x="0" y="0" width="88" height="100">
<path d="M0 0H87.9212V100H0V0Z" fill="white"/>
</mask>
<g mask="url(#mask0_229_5765)">
<path fill-rule="evenodd" clip-rule="evenodd" d="M12.8022 51.1684V59.7561L4.87847 55.4688L12.8022 51.1684ZM75.2455 51.1684L83.177 55.4688L75.2455 59.7561V51.1684ZM22.845 3.14092H65.2156C69.1088 3.14092 72.2601 6.41936 72.2601 10.6237V89.3839C72.2601 93.5883 69.1088 96.8668 65.2156 96.8668H22.845C18.9545 96.8668 15.8005 93.5883 15.8005 89.3839V10.6237C15.8005 6.41936 18.9545 3.14092 22.845 3.14092ZM22.845 0.150391C17.2712 0.150391 12.8022 4.88389 12.8022 10.6237V47.7655L1.03202 54.1512C-0.00546348 54.7192 -0.00546348 56.2132 1.03202 56.7812L12.8022 63.1513V89.3814C12.8022 95.1212 17.2712 99.8547 22.845 99.8547H65.2156C70.7895 99.8547 75.2455 95.1212 75.2455 89.3814V63.1565L87.0235 56.7812C88.0609 56.2106 88.0609 54.7192 87.0235 54.1512L75.2455 47.7655V10.6237C75.2455 4.88389 70.7895 0.150391 65.2156 0.150391H22.845Z" fill="url(#paint0_linear_229_5765)"/>
</g>
<path d="M37.5827 7.86884C35.5907 7.96221 35.7282 10.8568 37.7253 10.8568H50.3385C52.4031 10.8568 52.4031 7.78584 50.3385 7.86884H37.5827Z" fill="url(#paint1_linear_229_5765)"/>
<path d="M31.7297 34.9113L42.5299 40.6978V59.3102L31.7297 53.5184V34.9113ZM56.331 34.9113V53.5184L45.523 59.3102V40.6978L56.331 34.9113ZM44.0291 26.5855L54.684 32.398L44.0291 38.0989L33.3716 32.398L44.0291 26.5855ZM43.3132 23.5612L29.5199 31.0933C29.0375 31.3527 28.7314 31.8533 28.7314 32.4031V39.1364L19.861 43.9451C18.061 44.8814 19.5108 47.5737 21.2797 46.5829L28.7314 42.5445V54.4184C28.7314 54.9683 29.0375 55.4819 29.5277 55.7386L43.3184 63.1307C43.7567 63.3641 44.2884 63.3641 44.7268 63.1307L58.5278 55.7386C59.0154 55.4767 59.3163 54.9683 59.3163 54.4184V42.5393L66.781 46.5855C68.5525 47.5763 69.9997 44.884 68.2023 43.9477L59.3189 39.139V32.4057C59.3189 31.8611 59.0232 31.3527 58.5434 31.0933L44.7501 23.5638C44.1639 23.2448 43.7515 23.32 43.3132 23.5612Z" fill="url(#paint2_linear_229_5765)"/>
<path d="M20.5657 64.1534C18.9861 64.1249 18.457 66.2491 19.8576 66.978L43.3176 79.6975C43.7559 79.9361 44.2928 79.9361 44.7389 79.6975L68.1989 66.978C68.9615 66.6071 69.2649 65.663 68.8603 64.916C68.4531 64.169 67.5064 63.9122 66.7776 64.3454L44.0283 76.6706L21.279 64.3454C21.0585 64.2235 20.8121 64.1534 20.5657 64.1534Z" fill="url(#paint3_linear_229_5765)"/>
<path fill-rule="evenodd" clip-rule="evenodd" d="M42.9685 86.3048C43.993 85.7213 45.2614 86.0584 45.8553 87.0804C46.4519 88.1126 46.1069 89.3758 45.085 89.9671C44.0605 90.5585 42.7999 90.2135 42.2008 89.1838C41.6094 88.1593 41.9466 86.8962 42.9685 86.3048ZM41.4668 83.7163C39.0417 85.1117 38.2039 88.2579 39.6045 90.683C41.0077 93.1081 44.1564 93.9588 46.5816 92.5634C49.0144 91.1628 49.8496 88.0167 48.4412 85.589C47.0406 83.1639 43.8893 82.3131 41.4668 83.7163Z" fill="url(#paint4_linear_229_5765)"/>
<defs>
<linearGradient id="paint0_linear_229_5765" x1="0.253906" y1="0.150391" x2="99.1213" y2="86.9632" gradientUnits="userSpaceOnUse">
<stop stop-color="white"/>
<stop offset="1" stop-color="#71717A"/>
</linearGradient>
<linearGradient id="paint1_linear_229_5765" x1="36.1562" y1="7.86719" x2="37.253" y2="13.6379" gradientUnits="userSpaceOnUse">
<stop stop-color="white"/>
<stop offset="1" stop-color="#71717A"/>
</linearGradient>
<linearGradient id="paint2_linear_229_5765" x1="19.0352" y1="23.3516" x2="58.0064" y2="72.1135" gradientUnits="userSpaceOnUse">
<stop stop-color="white"/>
<stop offset="1" stop-color="#71717A"/>
</linearGradient>
<linearGradient id="paint3_linear_229_5765" x1="19.0469" y1="64.1348" x2="28.066" y2="92.7782" gradientUnits="userSpaceOnUse">
<stop stop-color="white"/>
<stop offset="1" stop-color="#71717A"/>
</linearGradient>
<linearGradient id="paint4_linear_229_5765" x1="38.9258" y1="83.0391" x2="49.122" y2="93.2391" gradientUnits="userSpaceOnUse">
<stop stop-color="white"/>
<stop offset="1" stop-color="#71717A"/>
</linearGradient>
</defs>
</svg>
