<svg width="100" height="100" viewBox="0 0 100 100" fill="none" xmlns="http://www.w3.org/2000/svg">
<path d="M45.2639 39.706C46.2533 39.2501 46.6849 38.079 46.229 37.092C45.7731 36.1027 44.602 35.6711 43.6126 36.127C41.0447 37.3103 38.8575 39.1822 37.2838 41.5416C35.6131 44.0489 34.7305 46.9757 34.7305 49.9994C34.7305 55.5305 37.7324 60.6444 42.5675 63.3408C42.8706 63.5106 43.2004 63.593 43.5253 63.593C44.2164 63.593 44.8881 63.2293 45.2494 62.5819C45.7804 61.6313 45.4385 60.4286 44.488 59.8976C40.9017 57.8971 38.6732 54.1022 38.6732 49.9994C38.6732 47.7564 39.3279 45.5887 40.567 43.7288C41.7334 41.9757 43.358 40.5862 45.2639 39.706Z" fill="url(#paint0_linear_229_5788)"/>
<path d="M35.9485 27.6019C30.2429 31.1882 26.1571 36.7362 24.4403 43.2226C23.8583 45.4219 23.5625 47.7037 23.5625 50C23.5625 57.791 26.9742 65.1479 32.9248 70.1867C33.2958 70.4995 33.7468 70.6523 34.1978 70.6523C34.7579 70.6523 35.3132 70.4147 35.7036 69.9564C36.4068 69.1246 36.3026 67.8807 35.4733 67.1775C30.4102 62.888 27.5053 56.6295 27.5053 50C27.5053 48.0432 27.7575 46.1033 28.2521 44.2289C29.7119 38.7124 33.1915 33.9937 38.0484 30.9384C38.9699 30.3613 39.2463 29.1416 38.6668 28.2202C38.0872 27.2988 36.8724 27.0223 35.9485 27.6019Z" fill="url(#paint1_linear_229_5788)"/>
<path d="M28.2461 18.7927C26.0274 20.3421 23.9663 22.1341 22.121 24.12C15.5691 31.1763 11.9609 40.3664 11.9609 50.0002C11.9609 60.3276 16.0298 69.9905 23.4158 77.2068C23.799 77.5827 24.296 77.7694 24.7931 77.7694C25.3048 77.7694 25.8164 77.5706 26.2044 77.1753C26.9634 76.3969 26.9512 75.1481 26.1704 74.3868C19.5507 67.9173 15.9037 59.2582 15.9037 50.0002C15.9037 41.3654 19.1384 33.1283 25.0114 26.8043C26.6651 25.0245 28.5128 23.4168 30.5036 22.0274C31.396 21.4018 31.6142 20.1748 30.991 19.2801C30.3678 18.3877 29.1384 18.1695 28.2461 18.7927Z" fill="url(#paint2_linear_229_5788)"/>
<mask id="mask0_229_5788" style="mask-type:luminance" maskUnits="userSpaceOnUse" x="22" y="0" width="79" height="100">
<path d="M22.7266 0H100.003V100H22.7266V0Z" fill="white"/>
</mask>
<g mask="url(#mask0_229_5788)">
<path d="M78.3631 69.7114C74.7259 67.2211 68.5474 67.1436 63.0964 67.0732C59.7865 67.032 56.656 66.9908 54.9562 66.4258C53.1521 65.7541 53.2079 65.2182 53.7681 62.8322C54.0906 61.4549 54.4567 59.8957 53.9548 58.3535C53.9523 58.3438 53.9475 58.3341 53.9451 58.3269C53.6298 57.4079 53.0649 56.6537 52.5678 55.9918C52.3544 55.7056 52.0513 55.3031 51.9155 55.0461C52.0149 54.9515 52.2016 54.8012 52.5265 54.6096C53.7026 53.9185 54.6507 53.9452 54.8083 53.9549C55.8195 54.1319 56.7603 53.4966 57.0173 52.5024C57.2768 51.501 56.6827 50.4631 55.7006 50.1334C55.1478 49.9394 53.5765 49.178 52.9145 47.9825C52.8636 47.8807 52.8272 47.8007 52.803 47.7352C52.9485 47.6188 53.1618 47.4685 53.3316 47.3497C54.3476 46.6343 55.868 45.565 56.5348 43.2905C56.736 42.7934 56.9349 41.9059 56.5469 40.7202C56.045 39.178 54.7331 37.6261 52.5411 35.9724C51.1371 34.9127 50.9359 34.3356 50.9116 34.2435C50.9577 34.1295 51.2244 33.6906 52.786 32.8225C54.4858 31.8768 60.2763 28.4093 63.3534 23.5815C64.7913 21.3264 64.8544 19.3889 64.8786 18.6591C64.8786 18.6251 64.8811 18.5936 64.8811 18.5669C64.9708 17.8928 65.0193 17.1363 65.075 16.2633C65.2351 13.7003 65.4485 10.3177 66.9664 7.17992C83.9911 13.9476 96.0619 30.5917 96.0619 50C96.0619 61.0524 92.1483 71.2051 85.6352 79.1489C83.2807 73.5669 79.8811 70.7517 78.3631 69.7114ZM85.3587 14.646C75.914 5.20126 63.3583 0 50.0023 0C42.8078 0 35.8607 1.49612 29.3573 4.44714C28.368 4.89816 27.9266 6.06693 28.3777 7.05868C28.8287 8.05044 29.9974 8.48933 30.9892 8.03831C36.9761 5.32008 43.3728 3.94277 50.0023 3.94277C54.5949 3.94277 59.0324 4.62173 63.2225 5.88021C61.5445 9.58293 61.3069 13.3632 61.1395 16.0136C61.0886 16.8307 61.0425 17.5364 60.9674 18.0795C60.9455 18.2347 60.9431 18.3802 60.9359 18.5306C60.9189 19.047 60.8849 20.1188 60.029 21.4622C57.9776 24.6775 53.9523 27.66 50.868 29.3768C49.0275 30.4025 47.1289 31.7483 46.9761 33.9694C46.8549 35.725 47.8975 37.4103 50.1672 39.1198C52.3107 40.7371 52.7302 41.7216 52.8078 41.9835C52.7933 42.0247 52.7811 42.066 52.7714 42.1072C52.5144 43.0626 51.9543 43.4966 51.0619 44.1246C49.9732 44.8909 47.7036 46.4888 49.4228 49.8133C49.43 49.8254 49.4349 49.8375 49.4422 49.8472C49.7283 50.3783 50.075 50.8463 50.4485 51.2585C49.0227 52.1169 48.2152 53.1062 47.98 54.2823C47.6381 55.9918 48.6638 57.3594 49.4131 58.3584C49.7477 58.8021 50.092 59.2629 50.2084 59.5902C50.3612 60.0873 50.1429 61.0233 49.9295 61.9326C49.4131 64.1319 48.4504 68.2323 53.6201 70.1358C53.6371 70.1406 53.6517 70.1455 53.6686 70.1528C55.9552 70.9263 59.2409 70.9675 63.0455 71.016C67.9388 71.079 73.4819 71.1494 76.1347 72.9656C77.4926 73.8943 80.7297 76.6198 82.6648 82.4418C74.3161 90.8463 62.7569 96.0597 50.0023 96.0597C41.4087 96.0597 33.0261 93.676 25.7613 89.1707C24.835 88.596 23.6201 88.8822 23.0455 89.806C22.4732 90.7323 22.7569 91.9471 23.6832 92.5218C31.5736 97.4151 40.674 100.002 50.0023 100.002C63.3583 100.002 75.914 94.8012 85.3587 85.3565C94.8035 75.9142 100.005 63.356 100.005 50C100.005 36.644 94.8035 24.0883 85.3587 14.646Z" fill="url(#paint3_linear_229_5788)"/>
</g>
<mask id="mask1_229_5788" style="mask-type:luminance" maskUnits="userSpaceOnUse" x="0" y="8" width="24" height="78">
<path d="M0 8.83008H23.7439V85.1831H0V8.83008Z" fill="white"/>
</mask>
<g mask="url(#mask1_229_5788)">
<path d="M4.07857 53.5485C3.98885 52.3773 3.94277 51.1843 3.94277 50.001C3.94277 35.4254 10.9602 21.5529 22.711 12.8963C23.5888 12.2488 23.7755 11.0146 23.1305 10.1392C22.483 9.26143 21.2488 9.07472 20.3734 9.71972C14.1925 14.2736 9.06887 20.275 5.55529 27.0767C1.92047 34.1062 0 42.0354 0 50.001C0 51.2837 0.0484966 52.5786 0.14549 53.8492C1.01358 65.2556 5.84384 76.1189 13.7464 84.436C14.1343 84.8434 14.6533 85.0495 15.1746 85.0495C15.6644 85.0495 16.1518 84.8701 16.5325 84.5063C17.323 83.7571 17.3545 82.5083 16.6052 81.7202C9.3259 74.0577 4.87633 64.0529 4.07857 53.5485Z" fill="url(#paint4_linear_229_5788)"/>
</g>
<defs>
<linearGradient id="paint0_linear_229_5788" x1="34.7305" y1="35.9453" x2="54.553" y2="44.3196" gradientUnits="userSpaceOnUse">
<stop stop-color="white"/>
<stop offset="1" stop-color="#71717A"/>
</linearGradient>
<linearGradient id="paint1_linear_229_5788" x1="23.5625" y1="27.2988" x2="50.9216" y2="37.0219" gradientUnits="userSpaceOnUse">
<stop stop-color="white"/>
<stop offset="1" stop-color="#71717A"/>
</linearGradient>
<linearGradient id="paint2_linear_229_5788" x1="11.9609" y1="18.4375" x2="46.9919" y2="29.883" gradientUnits="userSpaceOnUse">
<stop stop-color="white"/>
<stop offset="1" stop-color="#71717A"/>
</linearGradient>
<linearGradient id="paint3_linear_229_5788" x1="22.75" y1="0" x2="119.512" y2="74.7513" gradientUnits="userSpaceOnUse">
<stop stop-color="white"/>
<stop offset="1" stop-color="#71717A"/>
</linearGradient>
<linearGradient id="paint4_linear_229_5788" x1="0" y1="9.33594" x2="42.8915" y2="22.6567" gradientUnits="userSpaceOnUse">
<stop stop-color="white"/>
<stop offset="1" stop-color="#71717A"/>
</linearGradient>
</defs>
</svg>
