<svg width="87" height="100" viewBox="0 0 87 100" fill="none" xmlns="http://www.w3.org/2000/svg">
<mask id="mask0_229_5775" style="mask-type:luminance" maskUnits="userSpaceOnUse" x="0" y="0" width="87" height="100">
<path d="M0 0H86.5672V100H0V0Z" fill="white"/>
</mask>
<g mask="url(#mask0_229_5775)">
<path d="M83.2369 48.335C85.0733 48.335 86.5672 46.841 86.5672 45.0047V43.3395C86.5672 19.4567 67.1508 0.0273438 43.2836 0.0273438C19.4164 0.0273438 0 19.4567 0 43.3395V45.0047C0 46.841 1.49397 48.335 3.33031 48.335H12.5457L28.0612 66.6854C26.3416 66.8099 24.9721 68.2364 24.9721 69.9923V96.6426C24.9721 98.4815 26.4661 99.9755 28.3024 99.9755H58.2674C60.1037 99.9755 61.5977 98.4815 61.5977 96.6426V69.9923C61.5977 68.2364 60.2282 66.8099 58.506 66.6854L74.0215 48.335H83.2369ZM39.9559 69.9923H46.6139V78.3207H39.9559V69.9923ZM33.7233 66.6594L37.9484 48.335H48.6189L52.844 66.6594H33.7207H33.7233ZM51.6068 43.5677V45.0047H34.9604V43.5677C34.9604 17.1691 40.3787 3.36024 43.2836 3.36024C46.1886 3.36024 51.6068 17.1691 51.6068 43.5677ZM37.951 4.29138C33.7881 11.7042 31.6301 27.7021 31.6301 43.5677V45.0047H18.3141V43.5677C18.3141 24.3458 26.7358 8.2364 37.951 4.29138ZM34.5325 48.335L31.4019 61.913L27.226 48.335H34.5325ZM55.1679 61.913L52.0348 48.335H59.3412L55.1679 61.913ZM54.9371 45.0047V43.5677C54.9371 27.7021 52.7817 11.7042 48.6163 4.29138C59.8314 8.2364 68.2557 24.3458 68.2557 43.5677V45.0047H54.9371ZM83.2369 43.3395V45.0047H71.586V43.5677C71.586 27.5828 65.9525 13.5898 57.5827 6.01878C72.5691 11.7872 83.2369 26.3352 83.2369 43.3395ZM3.33031 43.3395C3.33031 26.3352 13.9982 11.7872 28.9846 6.01619C20.6173 13.5898 14.9838 27.5828 14.9838 43.5677V45.0021H3.33031V43.3369V43.3395ZM23.7427 48.335L27.6462 61.0363L16.9083 48.335H23.7427ZM28.3024 96.6426V69.9923H36.6256V78.3207C36.6256 80.157 38.1196 81.651 39.9559 81.651H46.6139C48.4503 81.651 49.9442 80.157 49.9442 78.3207V69.9923H58.2674L58.27 96.6426H28.3024ZM58.921 61.0363L62.8271 48.335H69.6615L58.921 61.0363Z" fill="url(#paint0_linear_229_5775)"/>
</g>
<path d="M53.2713 89.9766H48.2784C47.3577 89.9766 46.6133 90.7235 46.6133 91.6443C46.6133 92.5651 47.3577 93.3095 48.2784 93.3095H53.2713C54.1921 93.3095 54.9365 92.5651 54.9365 91.6443C54.9365 90.7235 54.1921 89.9766 53.2713 89.9766Z" fill="url(#paint1_linear_229_5775)"/>
<defs>
<linearGradient id="paint0_linear_229_5775" x1="0" y1="0.0273438" x2="98.9246" y2="85.708" gradientUnits="userSpaceOnUse">
<stop stop-color="white"/>
<stop offset="1" stop-color="#71717A"/>
</linearGradient>
<linearGradient id="paint1_linear_229_5775" x1="46.6133" y1="89.9766" x2="48.9136" y2="95.7212" gradientUnits="userSpaceOnUse">
<stop stop-color="white"/>
<stop offset="1" stop-color="#71717A"/>
</linearGradient>
</defs>
</svg>
