<svg width="75" height="100" viewBox="0 0 75 100" fill="none" xmlns="http://www.w3.org/2000/svg">
<mask id="mask0_229_5736" style="mask-type:luminance" maskUnits="userSpaceOnUse" x="0" y="0" width="75" height="100">
<path d="M0 0H74.8905V100H0V0Z" fill="white"/>
</mask>
<g mask="url(#mask0_229_5736)">
<path d="M73.9489 27.8073C73.2425 26.7669 72.0712 26.1463 70.8119 26.1463H56.1358V5.79193C56.1358 2.59626 53.5314 -0.00585938 50.3267 -0.00585938H5.75438C2.55195 -0.00585938 -0.0546875 2.594 -0.0546875 5.79193V94.1016C-0.0546875 97.2972 2.55195 99.8994 5.75438 99.8994H50.3267C53.5292 99.8994 56.1358 97.2972 56.1358 94.1016V78.0059C56.7677 78.1503 57.4222 78.2293 58.0992 78.2293C62.9243 78.2293 66.8512 74.3115 66.8512 69.4931C66.8512 64.6771 62.9243 60.7592 58.0992 60.7592C57.4244 60.7592 56.7677 60.8382 56.1358 60.9826V58.8522H58.5777C62.9221 58.8522 66.7023 56.065 67.9841 51.9147L74.3664 31.2625C74.7998 30.116 74.6463 28.8296 73.9489 27.8073ZM40.7375 3.21689L39.7603 6.21621H16.3231L15.3482 3.21689H40.7375ZM52.9085 94.0993C52.9085 95.5189 51.7508 96.6744 50.3267 96.6744H5.75438C4.33258 96.6744 3.17483 95.5189 3.17483 94.0993V5.79193C3.17483 4.37238 4.33258 3.21689 5.75438 3.21689H11.9516L13.6127 8.32635C13.8293 8.98985 14.4499 9.43896 15.1496 9.43896H40.9338C41.6312 9.43896 42.2518 8.98985 42.4684 8.32635L44.1317 3.21689H50.3267C51.7485 3.21689 52.9063 4.37238 52.9063 5.79193V26.1463H21.8546L19.7828 17.5771C19.0967 14.7425 16.5826 12.7633 13.6646 12.7633H8.68375C6.59167 12.7633 4.89002 14.4627 4.89002 16.5525C4.89002 18.64 6.59167 20.3394 8.68375 20.3394H12.658L20.4125 52.3999C17.2371 54.07 15.1902 57.374 15.1902 61.0233C15.1902 63.6186 16.208 66.065 18.0541 67.9088C19.4262 69.2765 21.1482 70.195 23.0146 70.5719C23.5472 74.8824 27.2371 78.2293 31.6966 78.2293C36.0884 78.2293 39.7332 74.984 40.3538 70.7682H49.442C49.7873 73.1199 51.0737 75.169 52.9085 76.5231V94.0993ZM49.5707 67.5432H40.2229C40.1349 67.1573 40.022 66.7804 39.8821 66.4126H49.9137C49.7738 66.7782 49.6587 67.1573 49.5707 67.5432ZM37.2168 69.4931C37.2168 72.5331 34.7411 75.0066 31.6944 75.0066C28.6499 75.0066 26.1719 72.5331 26.1719 69.4931C26.1719 66.4554 28.6499 63.982 31.6944 63.982C34.7411 63.982 37.2168 66.4554 37.2168 69.4931ZM63.6217 69.4931C63.6217 72.5331 61.1437 75.0066 58.0992 75.0066C55.0525 75.0066 52.5768 72.5331 52.5768 69.4931C52.5768 66.4554 55.0525 63.982 58.0992 63.982C61.1437 63.9842 63.6217 66.4554 63.6217 69.4931ZM52.9085 62.4676C52.6061 62.6911 52.3218 62.9325 52.0509 63.1898H37.7426C36.1696 61.6868 34.0392 60.7592 31.6966 60.7592C29.3518 60.7592 27.2191 61.6868 25.6483 63.1898H24.9532C23.7751 63.1898 22.7799 62.1968 22.7799 61.021C22.7799 59.8452 23.7751 58.8522 24.9532 58.8522H52.9085V62.4676ZM71.34 30.1431C71.3242 30.1815 71.3107 30.2221 71.2994 30.2627L64.9013 50.9668C64.0392 53.7563 61.498 55.6317 58.5799 55.6317H24.9532C21.9742 55.6317 19.5504 58.0488 19.5504 61.0233C19.5504 63.5216 21.2633 65.6294 23.5788 66.2365C23.4389 66.5841 23.317 66.9429 23.2222 67.3108C22.1435 67.0129 21.1482 66.4396 20.338 65.6294C19.1013 64.395 18.4197 62.7588 18.4197 61.0233C18.4197 58.2474 20.1891 55.7694 22.8273 54.8576C23.6127 54.5845 24.064 53.763 23.8677 52.9574L15.558 18.5972C15.3436 17.7125 14.5831 17.1189 13.6668 17.1189H8.686C8.37456 17.1189 8.11954 16.8639 8.11954 16.5525C8.11954 16.241 8.37456 15.9883 8.686 15.9883H13.6668C15.0864 15.9883 16.3096 16.9519 16.6458 18.3354L19.0155 28.1368C19.1893 28.8612 19.8392 29.3713 20.584 29.3713H70.8142C71.0737 29.3713 71.2182 29.5247 71.2814 29.6173C71.331 29.6917 71.4393 29.8948 71.34 30.1431ZM67.8668 30.4997H21.6379C21.1437 30.4997 20.6743 30.7254 20.3673 31.1135C20.0627 31.5017 19.9521 32.0095 20.0672 32.4879L25.0931 53.2665C25.2669 53.991 25.9169 54.501 26.6616 54.501H58.5799C61.0444 54.501 63.1049 52.9867 63.8293 50.6396L69.4104 32.585C69.5617 32.0952 69.4714 31.5649 69.1667 31.1519C68.8598 30.7411 68.3768 30.4997 67.8668 30.4997ZM64.5538 37.3582H56.1358V33.7202H65.6777L64.5538 37.3582ZM25.3459 40.5809H32.9018V44.2844H26.2419L25.3459 40.5809ZM36.129 40.5809H42.904V44.2844H36.129V40.5809ZM42.904 37.3582H36.129V33.7202H42.904V37.3582ZM46.1335 33.7224H52.9085V37.3582H46.1335V33.7224ZM42.904 47.5071V51.2783H36.129V47.5071H42.904ZM46.1335 47.5071H52.9085V51.2783H46.1335V47.5071ZM46.1335 44.2844V40.5809H52.9085V44.2844H46.1335ZM56.1358 40.5809H63.5585L62.4143 44.2844H56.1358V40.5809ZM32.8995 33.7224V37.3582H24.5673L23.6871 33.7202H32.8995V33.7224ZM27.0205 47.5071H32.8995V51.2783H27.9322L27.0205 47.5071ZM58.5799 51.2783H56.1358V47.5071H61.419L60.7442 49.6895C60.4373 50.6847 59.6271 51.2783 58.5799 51.2783ZM31.6944 64.9817C29.2028 64.9817 27.1739 67.0061 27.1739 69.4931C27.1739 71.9824 29.2028 74.0068 31.6944 74.0068C34.1881 74.0068 36.2148 71.9824 36.2148 69.4931C36.2148 67.0061 34.1881 64.9817 31.6944 64.9817ZM31.6944 70.784C30.9835 70.784 30.4035 70.2063 30.4035 69.4954C30.4035 68.7845 30.9835 68.2067 31.6944 68.2067C32.4075 68.2067 32.9853 68.7845 32.9853 69.4954C32.9875 70.2063 32.4075 70.784 31.6944 70.784ZM58.0992 74.0068C60.5908 74.0068 62.6197 71.9824 62.6197 69.4931C62.6197 67.0061 60.5908 64.9817 58.0992 64.9817C55.6077 64.9817 53.5788 67.0061 53.5788 69.4931C53.5788 71.9824 55.6077 74.0068 58.0992 74.0068ZM58.0992 68.2045C58.8124 68.2045 59.3901 68.7845 59.3901 69.4931C59.3901 70.2063 58.8101 70.7818 58.0992 70.7818C57.3861 70.7818 56.8083 70.204 56.8083 69.4931C56.8083 68.7845 57.3883 68.2045 58.0992 68.2045ZM32.4707 83.2665H23.6127C21.5364 83.2665 19.8483 84.9524 19.8483 87.0242C19.8483 89.0982 21.5364 90.784 23.6127 90.784H32.4707C34.547 90.784 36.2373 89.0982 36.2373 87.0242C36.2373 84.9524 34.547 83.2665 32.4707 83.2665ZM32.4707 87.5613H23.6127C23.317 87.5613 23.0755 87.3198 23.0755 87.0242C23.0755 86.7285 23.317 86.4893 23.6127 86.4893H32.4707C32.7686 86.4893 33.0078 86.7308 33.0078 87.0242C33.0078 87.3198 32.7686 87.5613 32.4707 87.5613Z" fill="url(#paint0_linear_229_5736)"/>
</g>
<defs>
<linearGradient id="paint0_linear_229_5736" x1="-0.0546875" y1="-0.00585938" x2="95.7584" y2="71.5993" gradientUnits="userSpaceOnUse">
<stop stop-color="white"/>
<stop offset="1" stop-color="#71717A"/>
</linearGradient>
</defs>
</svg>
