<svg width="86" height="100" viewBox="0 0 86 100" fill="none" xmlns="http://www.w3.org/2000/svg">
<mask id="mask0_229_5742" style="mask-type:luminance" maskUnits="userSpaceOnUse" x="0" y="30" width="68" height="55">
<path d="M0 30.6699H67.4744V84.3398H0V30.6699Z" fill="white"/>
</mask>
<g mask="url(#mask0_229_5742)">
<path d="M67.159 83.9259L21.0756 83.7531L7.67885 35.0134H0.0117188V30.9609H10.766L24.165 79.7122L67.1751 79.8734L67.159 83.9259Z" fill="url(#paint0_linear_229_5742)"/>
</g>
<path d="M68.2031 74.2192L19.4219 73.8736L19.4518 69.8212L65.1229 70.146L71.8823 45.5481L21.4331 45.2302L21.4585 41.1777L77.1857 41.5302L68.2031 74.2192Z" fill="url(#paint1_linear_229_5742)"/>
<path d="M29.6573 99.504C29.2057 99.504 28.7565 99.4602 28.3141 99.3727C27.8718 99.2851 27.441 99.1538 27.024 98.981C26.6047 98.8082 26.2084 98.5963 25.8329 98.3452C25.4574 98.094 25.1095 97.8084 24.7893 97.4881C24.4691 97.1702 24.1857 96.8223 23.9346 96.4445C23.6834 96.069 23.4692 95.6727 23.2964 95.2557C23.1236 94.8387 22.9946 94.4079 22.9048 93.9633C22.8172 93.521 22.7734 93.0717 22.7734 92.6202C22.7734 92.1686 22.8172 91.7217 22.9048 91.277C22.9923 90.8347 23.1236 90.4039 23.2964 89.9869C23.4692 89.5676 23.6811 89.1713 23.9323 88.7958C24.1834 88.4203 24.4691 88.0724 24.7893 87.7522C25.1072 87.4319 25.4551 87.1463 25.8306 86.8952C26.2061 86.644 26.6047 86.4321 27.0217 86.2593C27.4387 86.0865 27.8695 85.9552 28.3118 85.8676C28.7565 85.7801 29.2034 85.7363 29.655 85.7363C30.1065 85.7363 30.5558 85.7801 30.9981 85.8676C31.4404 85.9552 31.8712 86.0865 32.2905 86.2593C32.7075 86.4321 33.1038 86.644 33.4793 86.8952C33.8548 87.1463 34.2027 87.4319 34.5229 87.7522C34.8432 88.0724 35.1265 88.418 35.3777 88.7958C35.6288 89.1713 35.8407 89.5676 36.0135 89.9846C36.1886 90.4039 36.3176 90.8324 36.4052 91.277C36.495 91.7194 36.5388 92.1686 36.5388 92.6202C36.5388 93.0717 36.4927 93.5186 36.4052 93.9633C36.3153 94.4056 36.1863 94.8364 36.0135 95.2534C35.8384 95.6704 35.6265 96.0667 35.3754 96.4422C35.1242 96.8177 34.8409 97.1656 34.5206 97.4858C34.2004 97.8038 33.8548 98.0894 33.4793 98.3406C33.1038 98.5917 32.7075 98.8036 32.2882 98.9787C31.8712 99.1515 31.4427 99.2828 30.9981 99.3704C30.5558 99.4602 30.1088 99.504 29.6573 99.504ZM29.6573 89.7888C29.4707 89.7888 29.2864 89.8072 29.1043 89.8417C28.9223 89.8786 28.745 89.9316 28.5722 90.003C28.4017 90.0744 28.2381 90.162 28.0838 90.2656C27.9294 90.3693 27.7843 90.4868 27.6529 90.6181C27.5216 90.7495 27.4041 90.8923 27.3005 91.0466C27.1991 91.201 27.1115 91.3646 27.0401 91.5374C26.9687 91.7078 26.9157 91.8852 26.8789 92.0672C26.842 92.2515 26.8236 92.4335 26.8236 92.6202C26.8236 92.8068 26.842 92.9911 26.8789 93.1731C26.9134 93.3551 26.9687 93.5325 27.0401 93.7053C27.1115 93.8757 27.1968 94.0393 27.3005 94.1937C27.4041 94.3503 27.5216 94.4932 27.6529 94.6245C27.7843 94.7558 27.9271 94.8733 28.0815 94.977C28.2381 95.0806 28.3994 95.1682 28.5722 95.2373C28.745 95.3087 28.92 95.364 29.1043 95.3986C29.2864 95.4354 29.4707 95.4539 29.6573 95.4539C29.8416 95.4539 30.0259 95.4354 30.2079 95.3986C30.3922 95.364 30.5673 95.3087 30.7401 95.2373C30.9129 95.1659 31.0741 95.0783 31.2308 94.977C31.3851 94.8733 31.528 94.7558 31.6593 94.6245C31.7906 94.4909 31.9081 94.348 32.0118 94.1937C32.1131 94.0393 32.2007 93.8757 32.2721 93.7053C32.3435 93.5325 32.3965 93.3551 32.4334 93.1731C32.4702 92.9911 32.4887 92.8068 32.4887 92.6202C32.4887 92.4335 32.4702 92.2492 32.4334 92.0672C32.3965 91.8852 32.3435 91.7078 32.2721 91.5374C32.2007 91.3646 32.1131 91.201 32.0095 91.0466C31.9058 90.8923 31.7883 90.7495 31.657 90.6181C31.5257 90.4868 31.3828 90.3693 31.2285 90.2656C31.0741 90.1643 30.9105 90.0767 30.7401 90.0053C30.5673 89.9339 30.3922 89.8809 30.2079 89.844C30.0259 89.8072 29.8439 89.7888 29.6573 89.7888Z" fill="url(#paint2_linear_229_5742)"/>
<mask id="mask1_229_5742" style="mask-type:luminance" maskUnits="userSpaceOnUse" x="46" y="86" width="16" height="15">
<path d="M46.8359 86.1094H61.5804V100.001H46.8359V86.1094Z" fill="white"/>
</mask>
<g mask="url(#mask1_229_5742)">
<path d="M54.2745 100.008C53.8229 100.008 53.376 99.9641 52.9336 99.8766C52.489 99.789 52.0582 99.6577 51.6412 99.4849C51.2242 99.3121 50.8279 99.1002 50.4524 98.8491C50.0746 98.598 49.729 98.3123 49.4088 97.992C49.0885 97.6741 48.8029 97.3262 48.5518 96.9507C48.3006 96.5729 48.0887 96.1766 47.9159 95.7596C47.7431 95.3426 47.6118 94.9118 47.5242 94.4672C47.4367 94.0249 47.3906 93.5779 47.3906 93.1241C47.3906 92.6725 47.4367 92.2256 47.5242 91.7809C47.6118 91.3386 47.7431 90.9078 47.9159 90.4908C48.0887 90.0715 48.3006 89.6752 48.5518 89.2997C48.8029 88.9242 49.0885 88.5763 49.4065 88.2561C49.7267 87.9358 50.0746 87.6502 50.4501 87.3991C50.8256 87.1479 51.2219 86.936 51.6412 86.7632C52.0582 86.5904 52.489 86.4591 52.9313 86.3716C53.3737 86.284 53.8229 86.2402 54.2745 86.2402C54.726 86.2402 55.1729 86.284 55.6176 86.3716C56.0599 86.4591 56.4907 86.5904 56.9077 86.7632C57.3247 86.936 57.7233 87.1479 58.0988 87.3991C58.4743 87.6502 58.8222 87.9358 59.1401 88.2561C59.4604 88.5763 59.746 88.9242 59.9972 89.2997C60.2483 89.6752 60.4602 90.0715 60.633 90.4885C60.8058 90.9078 60.9371 91.3386 61.0247 91.7809C61.1122 92.2233 61.156 92.6725 61.156 93.1241C61.156 93.5756 61.1122 94.0226 61.0247 94.4672C60.9348 94.9095 60.8035 95.3403 60.6307 95.7573C60.4579 96.1743 60.246 96.5706 59.9949 96.9461C59.7437 97.3216 59.4581 97.6695 59.1401 97.9897C58.8199 98.31 58.472 98.5933 58.0965 98.8445C57.721 99.0956 57.3247 99.3098 56.9077 99.4826C56.4907 99.6554 56.0599 99.7867 55.6176 99.8743C55.1753 99.9641 54.7283 100.008 54.2745 100.008ZM54.2745 90.2927C54.0901 90.2927 53.9058 90.3111 53.7238 90.3457C53.5395 90.3825 53.3644 90.4355 53.1917 90.5069C53.0189 90.5783 52.8553 90.6659 52.7009 90.7696C52.5466 90.8732 52.4037 90.9907 52.2724 91.122C52.1411 91.2534 52.0236 91.3962 51.9199 91.5506C51.8163 91.7049 51.7287 91.8685 51.6573 92.0413C51.5859 92.2117 51.5329 92.3891 51.496 92.5711C51.4615 92.7555 51.4431 92.9398 51.4431 93.1241C51.4431 93.3107 51.4615 93.495 51.496 93.677C51.5329 93.859 51.5859 94.0364 51.6573 94.2092C51.7287 94.382 51.8163 94.5432 51.9199 94.6999C52.0236 94.8542 52.1411 94.9971 52.2724 95.1284C52.4037 95.2597 52.5466 95.3772 52.7009 95.4809C52.8553 95.5845 53.0189 95.6721 53.1917 95.7412C53.3621 95.8126 53.5395 95.8679 53.7215 95.9025C53.9035 95.9393 54.0878 95.9578 54.2745 95.9578C54.4611 95.9578 54.6454 95.9393 54.8274 95.9025C55.0094 95.8679 55.1868 95.8126 55.3596 95.7412C55.53 95.6698 55.6936 95.5845 55.848 95.4809C56.0023 95.3772 56.1452 95.2597 56.2765 95.1284C56.4078 94.9971 56.5253 94.8519 56.629 94.6976C56.7326 94.5432 56.8202 94.3796 56.8916 94.2092C56.963 94.0364 57.016 93.859 57.0529 93.677C57.0874 93.495 57.1059 93.3107 57.1059 93.1241C57.1059 92.9375 57.0874 92.7531 57.0506 92.5711C57.016 92.3891 56.9607 92.2117 56.8893 92.0413C56.8179 91.8685 56.7326 91.7072 56.629 91.5529C56.5253 91.3962 56.4078 91.2534 56.2765 91.122C56.1452 90.9907 56.0023 90.8732 55.848 90.7719C55.6936 90.6682 55.53 90.5806 55.3573 90.5092C55.1868 90.4378 55.0094 90.3848 54.8274 90.348C54.6454 90.3111 54.4611 90.2927 54.2745 90.2927Z" fill="url(#paint3_linear_229_5742)"/>
</g>
<mask id="mask2_229_5742" style="mask-type:luminance" maskUnits="userSpaceOnUse" x="28" y="0" width="58" height="51">
<path d="M28.5469 0H85.7278V50.721H28.5469V0Z" fill="white"/>
</mask>
<g mask="url(#mask2_229_5742)">
<path d="M74.5277 50.4252L71.9498 47.299C76.3846 43.6382 81.6719 37.4801 81.6719 28.9213C81.6719 15.391 70.6688 4.3787 57.1362 4.3787C43.6058 4.3787 32.6004 15.3864 32.6004 28.9213C32.6004 31.1399 32.893 33.3193 33.4851 35.4596C34.0749 37.5999 34.9411 39.6226 36.0815 41.5279L32.6096 43.6105C32.3286 43.1406 32.0613 42.6614 31.8056 42.1753C31.5522 41.6914 31.3126 41.1984 31.0868 40.6985C30.861 40.1986 30.6491 39.6917 30.4533 39.1803C30.2551 38.6688 30.0731 38.1505 29.9073 37.6298C29.7391 37.1068 29.587 36.5793 29.4511 36.0494C29.3129 35.5172 29.1931 34.9827 29.0871 34.4459C28.9811 33.9068 28.889 33.3654 28.8152 32.824C28.7392 32.2803 28.6816 31.7343 28.6379 31.1883C28.5941 30.6423 28.5664 30.094 28.5549 29.5457C28.5411 28.9974 28.5457 28.4491 28.5641 27.9008C28.5849 27.3524 28.6194 26.8064 28.6701 26.2604C28.7208 25.7144 28.7876 25.1707 28.8705 24.627C28.9535 24.0856 29.0502 23.5465 29.1631 23.0097C29.276 22.4729 29.405 21.9408 29.5502 21.4109C29.693 20.881 29.852 20.358 30.0271 19.8374C30.1998 19.3167 30.3888 18.8029 30.5938 18.2938C30.7965 17.7847 31.0154 17.2801 31.2481 16.7848C31.4808 16.2872 31.7273 15.7988 31.9876 15.315C32.2479 14.8335 32.5221 14.3589 32.8101 13.8935C33.1004 13.4258 33.3999 12.9674 33.7155 12.5181C34.0288 12.0689 34.3559 11.6288 34.6969 11.198C35.0356 10.7695 35.3881 10.3479 35.7521 9.93783C36.1161 9.52775 36.4916 9.12919 36.8786 8.73984C37.2657 8.35049 37.6619 7.97497 38.072 7.60866C38.4798 7.24235 38.8991 6.88987 39.3276 6.5466C39.7561 6.20563 40.1938 5.87619 40.6431 5.56056C41.09 5.24494 41.5462 4.94083 42.0116 4.65055C42.4769 4.36027 42.9515 4.08381 43.4307 3.82117C43.9122 3.55854 44.4006 3.30972 44.8959 3.07473C45.3913 2.83974 45.8935 2.62088 46.4026 2.41354C46.9095 2.2085 47.4232 2.01728 47.9439 1.83988C48.4623 1.66479 48.9852 1.50353 49.5151 1.35608C50.0427 1.21094 50.5749 1.07962 51.1117 0.96443C51.6485 0.849239 52.1852 0.74787 52.7289 0.664933C53.2703 0.579691 53.814 0.510576 54.3601 0.457588C54.9038 0.4046 55.4521 0.36774 56.0004 0.344701C56.5464 0.323967 57.0947 0.317055 57.643 0.32627C58.1913 0.337789 58.7396 0.363131 59.2856 0.404601C59.8316 0.446069 60.3776 0.501361 60.9213 0.575084C61.465 0.646502 62.0065 0.736351 62.5432 0.840023C63.0823 0.943695 63.6168 1.06349 64.149 1.19712C64.6789 1.33074 65.2065 1.48049 65.7294 1.64636C66.2524 1.81224 66.7708 1.99194 67.2822 2.18546C67.796 2.38128 68.3028 2.59093 68.8027 2.8144C69.3027 3.03787 69.798 3.27517 70.2841 3.52859C70.7702 3.7797 71.2494 4.04695 71.7217 4.32571C72.194 4.60678 72.657 4.89936 73.1109 5.20577C73.5647 5.51218 74.0117 5.83241 74.4471 6.16416C74.8825 6.49591 75.3087 6.84149 75.7257 7.19628C76.1427 7.55337 76.5482 7.92198 76.9445 8.30211C77.3384 8.68224 77.7231 9.07389 78.0964 9.47476C78.4696 9.87793 78.829 10.2903 79.1792 10.7142C79.527 11.1358 79.8634 11.5689 80.1882 12.0113C80.5131 12.4536 80.8241 12.9052 81.1213 13.3659C81.4208 13.8244 81.7042 14.2944 81.976 14.7689C82.2479 15.2458 82.5036 15.7296 82.7478 16.2227C82.992 16.7134 83.2201 17.211 83.4343 17.7155C83.6509 18.2201 83.849 18.7315 84.0356 19.2476C84.2199 19.7636 84.3904 20.2843 84.5471 20.8096C84.7014 21.3372 84.842 21.867 84.9664 22.3992C85.0931 22.9337 85.2014 23.4705 85.2958 24.0119C85.3903 24.551 85.4686 25.0947 85.5308 25.6384C85.593 26.1844 85.6414 26.7304 85.6736 27.2764C85.7036 27.8247 85.7197 28.373 85.7197 28.9213C85.7197 33.1627 84.6185 37.2773 82.446 41.15C80.5476 44.5344 77.8844 47.6537 74.5277 50.4252Z" fill="url(#paint4_linear_229_5742)"/>
</g>
<path d="M54.0273 2.97852H58.0775V43.4752H54.0273V2.97852Z" fill="url(#paint5_linear_229_5742)"/>
<path d="M30.582 27.0488H83.3834V31.1013H30.582V27.0488Z" fill="url(#paint6_linear_229_5742)"/>
<path d="M45.1543 44.2653C42.2031 39.0563 40.4891 34.0455 40.0629 29.3779C39.5076 23.358 40.989 17.4326 44.4609 11.7583C47.2485 7.20593 50.6213 3.95293 52.4321 2.20433C52.7961 1.85645 53.1117 1.55004 53.3029 1.34961L56.238 4.13954C55.9869 4.40679 55.6598 4.72011 55.2451 5.12097C51.8884 8.35554 42.9772 16.9488 44.0923 29.0047C44.4701 33.0963 46.0136 37.5588 48.6792 42.2678L45.1543 44.2653Z" fill="url(#paint7_linear_229_5742)"/>
<path d="M67.2922 43.9773L63.7513 42.0099C66.2878 37.4391 67.7622 33.1033 68.1285 29.12C69.239 17.0663 60.3301 8.47308 56.9757 5.23851C56.561 4.83764 56.2339 4.52202 55.9805 4.25708L58.9178 1.46484C59.1091 1.66528 59.4224 1.96938 59.7887 2.31956C61.5995 4.06817 64.9746 7.32347 67.7599 11.8735C71.2318 17.5455 72.7178 23.4756 72.1579 29.4932C71.7432 34.0409 70.1052 38.9135 67.2922 43.9773Z" fill="url(#paint8_linear_229_5742)"/>
<path d="M56.3461 18.5189C49.0268 18.5189 42.1338 15.4042 37.9062 10.1837L41.051 7.63797C44.5228 11.9208 50.2363 14.4665 56.3461 14.4665C62.8267 14.4665 68.9273 11.5337 72.2655 6.80859L75.5738 9.14698C73.5787 11.9715 70.7772 14.3306 67.4712 15.9663C63.9602 17.6803 60.2511 18.5305 56.3461 18.5189Z" fill="url(#paint9_linear_229_5742)"/>
<defs>
<linearGradient id="paint0_linear_229_5742" x1="0.0117188" y1="30.9609" x2="51.5172" y2="96.2737" gradientUnits="userSpaceOnUse">
<stop stop-color="white"/>
<stop offset="1" stop-color="#71717A"/>
</linearGradient>
<linearGradient id="paint1_linear_229_5742" x1="19.4219" y1="41.1777" x2="47.903" y2="90.9691" gradientUnits="userSpaceOnUse">
<stop stop-color="white"/>
<stop offset="1" stop-color="#71717A"/>
</linearGradient>
<linearGradient id="paint2_linear_229_5742" x1="22.7734" y1="85.7363" x2="36.5411" y2="99.5017" gradientUnits="userSpaceOnUse">
<stop stop-color="white"/>
<stop offset="1" stop-color="#71717A"/>
</linearGradient>
<linearGradient id="paint3_linear_229_5742" x1="47.3906" y1="86.2402" x2="61.1583" y2="100.006" gradientUnits="userSpaceOnUse">
<stop stop-color="white"/>
<stop offset="1" stop-color="#71717A"/>
</linearGradient>
<linearGradient id="paint4_linear_229_5742" x1="28.5469" y1="0.322266" x2="78.2165" y2="57.0006" gradientUnits="userSpaceOnUse">
<stop stop-color="white"/>
<stop offset="1" stop-color="#71717A"/>
</linearGradient>
<linearGradient id="paint5_linear_229_5742" x1="54.0273" y1="2.97852" x2="62.0474" y2="3.78061" gradientUnits="userSpaceOnUse">
<stop stop-color="white"/>
<stop offset="1" stop-color="#71717A"/>
</linearGradient>
<linearGradient id="paint6_linear_229_5742" x1="30.582" y1="27.0488" x2="31.2004" y2="35.1062" gradientUnits="userSpaceOnUse">
<stop stop-color="white"/>
<stop offset="1" stop-color="#71717A"/>
</linearGradient>
<linearGradient id="paint7_linear_229_5742" x1="39.9492" y1="1.34961" x2="68.4246" y2="12.1576" gradientUnits="userSpaceOnUse">
<stop stop-color="white"/>
<stop offset="1" stop-color="#71717A"/>
</linearGradient>
<linearGradient id="paint8_linear_229_5742" x1="55.9805" y1="1.46484" x2="84.3925" y2="12.3535" gradientUnits="userSpaceOnUse">
<stop stop-color="white"/>
<stop offset="1" stop-color="#71717A"/>
</linearGradient>
<linearGradient id="paint9_linear_229_5742" x1="37.9062" y1="6.80859" x2="44.5458" y2="28.1653" gradientUnits="userSpaceOnUse">
<stop stop-color="white"/>
<stop offset="1" stop-color="#71717A"/>
</linearGradient>
</defs>
</svg>
