<svg width="93" height="100" viewBox="0 0 93 100" fill="none" xmlns="http://www.w3.org/2000/svg">
<mask id="mask0_229_5782" style="mask-type:luminance" maskUnits="userSpaceOnUse" x="0" y="0" width="93" height="100">
<path d="M0 0H92.0926V100H0V0Z" fill="white"/>
</mask>
<g mask="url(#mask0_229_5782)">
<path d="M87.1123 19.4667C87.0444 18.5719 86.3048 17.8833 85.3955 17.8833H65.7568V13.6835C65.7568 6.11071 59.605 -0.0507812 52.0444 -0.0507812H39.4329C31.8747 -0.0507812 25.7229 6.11071 25.7229 13.6835V17.8833H6.7025C5.81017 17.8833 5.05362 18.5719 4.98572 19.4667L-0.03125 86.4187C-0.03125 93.8532 5.9993 99.8959 13.4217 99.8959H78.6763C86.0987 99.8959 92.1293 93.8532 92.1293 86.2974L87.1123 19.4837V19.4667ZM29.1589 13.6665C29.1589 7.98753 33.7636 3.3755 39.4329 3.3755H52.0444C57.7161 3.3755 62.3208 7.98753 62.3208 13.6665V17.8663H29.1589V13.6665ZM8.30047 21.3265H25.7229V29.8619C25.7229 30.81 26.4964 31.5836 27.4421 31.5836C28.3853 31.5836 29.1589 30.81 29.1589 29.8619V21.3265H62.3208V29.8619C62.3208 30.81 63.0944 31.5836 64.0376 31.5836C64.9833 31.5836 65.7568 30.81 65.7568 29.8619V21.3265H83.7976L88.4363 82.9778H3.66177L8.30047 21.3265ZM78.6763 96.4526H13.4217C7.90522 96.4526 3.40473 91.9618 3.40473 86.5569V86.4187H88.6933C88.6933 91.9449 84.2098 96.4526 78.6763 96.4526ZM30.946 73.7514H51.3412C55.6356 73.7514 59.1249 70.2572 59.1249 65.9555L66.2709 70.7397C66.5643 70.9289 66.8892 71.0331 67.2335 71.0331C67.51 71.0331 67.784 70.9628 68.041 70.8246C68.6084 70.5336 68.9528 69.9468 68.9528 69.3115V44.4061C68.9528 43.7708 68.6084 43.1839 68.041 42.893C67.4906 42.5996 66.8044 42.6335 66.2709 42.9778L59.1249 47.762C59.1249 43.4604 55.6356 39.9492 51.3412 39.9492H30.946C26.6516 39.9492 23.1623 43.4434 23.1623 47.745V65.9555C23.1623 70.2572 26.6516 73.7514 30.946 73.7514ZM65.5168 47.6262V66.0743L59.1249 61.7897V51.8939L65.5168 47.6262ZM26.5813 47.745C26.5813 45.3348 28.5405 43.3901 30.929 43.3901H51.3242C53.7297 43.3901 55.6695 45.3542 55.6695 47.745V65.9555C55.6695 68.3634 53.7127 70.3105 51.3242 70.3105H30.929C28.5236 70.3105 26.5813 68.3464 26.5813 65.9555V47.745ZM35.672 65.5773C35.929 65.713 36.22 65.7834 36.4964 65.7834C36.8213 65.7834 37.1317 65.6961 37.4057 65.5239L48.8485 58.2955C49.348 57.9851 49.6559 57.4347 49.6559 56.8333C49.6559 56.2295 49.348 55.6961 48.8485 55.3711L37.4057 48.1597C36.8747 47.8323 36.203 47.796 35.655 48.1063C35.1045 48.4167 34.7602 48.9841 34.7602 49.6219V64.0617C34.7602 64.6825 35.1045 65.2669 35.655 65.5773H35.672ZM38.2132 52.7547L44.7093 56.8503L38.2132 60.9458V52.7378V52.7547Z" fill="url(#paint0_linear_229_5782)"/>
</g>
<defs>
<linearGradient id="paint0_linear_229_5782" x1="-0.03125" y1="-0.0507812" x2="99.5876" y2="91.8075" gradientUnits="userSpaceOnUse">
<stop stop-color="white"/>
<stop offset="1" stop-color="#71717A"/>
</linearGradient>
</defs>
</svg>
